<?xml version="1.0" encoding="UTF-8"?>
<svg version="1.1" xmlns="http://www.w3.org/2000/svg" width="250" height="250">
<path d="M0 0 C82.5 0 165 0 250 0 C250 82.5 250 165 250 250 C167.5 250 85 250 0 250 C0 167.5 0 85 0 0 Z " fill="#FCFDFD" transform="translate(0,0)"/>
<path d="M0 0 C8.18390805 3.18390805 8.18390805 3.18390805 11 6 C15.76538183 6.47653818 19.44184364 5.35533047 23.8515625 3.75390625 C32.26234622 0.80248578 40.40595989 1.24737687 48.8125 4.0625 C53.68566347 5.68688782 56.96720096 6.67759968 62 5 C63.30656285 4.16879786 64.59740084 3.31256792 65.875 2.4375 C69.59311816 -0.03403979 72.42865472 -0.74659697 76.8828125 -0.5 C80.57562562 0.37210347 82.40561906 2.27590001 85 5 C87.37726344 9.75452688 86.37965804 15.82106188 84.8125 20.6875 C83.38989461 23.28743399 82.09395009 25.13041451 80.25 27.375 C78.11730356 30.2270836 77.74008625 31.84472163 78.1875 35.375 C78.4537133 36.91747116 78.72456946 38.45914802 79 40 C79.64718161 46.34907473 78.51866926 50.70956841 75.94921875 56.515625 C74.74267703 59.67348729 74.45874796 62.59999751 74.21484375 65.94921875 C73.91656118 68.79646146 73.02344041 71.33905495 72 74 C72.86625 74.26167969 73.7325 74.52335937 74.625 74.79296875 C87.24378132 79.30593568 96.9739545 87.02086355 103 99 C105.60581272 105.78135632 106.55293075 112.13621683 106.5 119.375 C106.49427979 120.2918457 106.48855957 121.20869141 106.48266602 122.15332031 C106.18077791 133.6474306 101.9810977 142.72672339 94 151 C78.61699607 164.72192838 61.93401461 167.73436299 42.07861328 170.59863281 C40.01806461 170.79519522 40.01806461 170.79519522 39 172 C36.55567139 172.13881703 34.14171036 172.21265755 31.6953125 172.23828125 C30.94816986 172.24793915 30.20102722 172.25759705 29.4312439 172.26754761 C26.99577981 172.2925327 24.56057873 172.30496403 22.125 172.3125 C21.30443115 172.31545074 20.4838623 172.31840149 19.63842773 172.32144165 C-10.89872918 172.34657666 -10.89872918 172.34657666 -20 165 C-20.82628906 164.6803125 -21.65257813 164.360625 -22.50390625 164.03125 C-31.56661334 160.28703299 -37.01751696 149.64546674 -40.8125 141.125 C-43.71220652 133.49419336 -44.55120529 124.71272519 -41.24609375 117.04296875 C-37.36821754 110.68519679 -31.85693664 105.51170384 -26 101 C-26.96358969 99.05569014 -27.93474817 97.12099327 -28.96484375 95.2109375 C-31.34865306 90.71137776 -32.87930416 86.34020214 -34.09375 81.39453125 C-35.27322186 78.27808191 -36.66600408 76.38889912 -39 74 C-41.96345612 73.25583708 -41.96345612 73.25583708 -45.26953125 73.36328125 C-46.48833984 73.34330078 -47.70714844 73.32332031 -48.96289062 73.30273438 C-50.23326172 73.30595703 -51.50363281 73.30917969 -52.8125 73.3125 C-68.57792623 73.20755861 -68.57792623 73.20755861 -74 71 C-75.9375 68.875 -75.9375 68.875 -77 67 C-80.09322404 67.3344026 -81.58887768 67.5595118 -83.75 69.875 C-85.13728585 72.06446757 -85.13728585 72.06446757 -86 75 C-86.66 75 -87.32 75 -88 75 C-87.67 72.69 -87.34 70.38 -87 68 C-88.98 66.68 -90.96 65.36 -93 64 C-92.67 63.34 -92.34 62.68 -92 62 C-91.34 62.33 -90.68 62.66 -90 63 C-88.12943209 63.2275015 -86.25314042 63.40962811 -84.375 63.5625 C-83.37210938 63.64628906 -82.36921875 63.73007813 -81.3359375 63.81640625 C-80.56507812 63.87699219 -79.79421875 63.93757813 -79 64 C-79.33 63.34 -79.66 62.68 -80 62 C-80.57380143 54.9996225 -80.57380143 54.9996225 -78.515625 51.4140625 C-75.1178085 48.15342493 -71.94393834 47.29296434 -67.4375 46.1875 C-66.60557129 45.97810791 -65.77364258 45.76871582 -64.91650391 45.55297852 C-54.48156177 43.14559327 -40.65978335 41.12068524 -30.91015625 46.68359375 C-30.27980469 47.11800781 -29.64945313 47.55242187 -29 48 C-28.23558594 48.48597656 -27.47117187 48.97195312 -26.68359375 49.47265625 C-17.66257548 55.75913192 -13.79754222 63.71743535 -11.73828125 74.3359375 C-10.95000911 77.18039041 -9.81332695 78.71316786 -8 81 C-7.68201268 74.91806211 -7.41323444 68.83657699 -7.18823242 62.75048828 C-7.10510792 60.68415844 -7.00897291 58.61830668 -6.89916992 56.55322266 C-5.70492403 43.04030427 -5.70492403 43.04030427 -10.375 30.796875 C-11.55742512 29.50701186 -12.76233843 28.23695995 -14 27 C-17.46049506 20.97204086 -18.17177238 14.81842356 -17 8 C-12.99574697 0.81193723 -7.94413179 -1.11265701 0 0 Z " fill="#121822" transform="translate(105,36)"/>
<path d="M0 0 C0.76441406 0.48597656 1.52882813 0.97195312 2.31640625 1.47265625 C11.33742452 7.75913192 15.20245778 15.71743535 17.26171875 26.3359375 C17.94610377 29.43447055 17.94610377 29.43447055 21 33 C21.33 25.08 21.66 17.16 22 9 C22.33 9 22.66 9 23 9 C23.495 19.395 23.495 19.395 24 30 C24.66 30 25.32 30 26 30 C26 26.7 26 23.4 26 20 C29.74542891 21.2484763 30.58611541 22.93553313 33 26 C34.50426471 27.27466642 36.04825939 28.50366055 37.625 29.6875 C41.45809613 32.69921839 45.09783042 35.82065631 48.625 39.1875 C49.88183594 40.38439453 49.88183594 40.38439453 51.1640625 41.60546875 C53.27100309 44.35345722 53.41991064 45.62271868 53 49 C54.485 49.495 54.485 49.495 56 50 C54.68 50.99 53.36 51.98 52 53 C52.495 55.475 52.495 55.475 53 58 C54.98 58.66 56.96 59.32 59 60 C58.01 61.98 58.01 61.98 57 64 C55.02 64 53.04 64 51 64 C51.02320312 64.58007812 51.04640625 65.16015625 51.0703125 65.7578125 C51.18136555 70.56482308 51.06352697 74.54712601 49 79 C45.95318939 81.03120707 45.39881676 81.24659875 41.98828125 81.1953125 C40.85229492 81.18564453 40.85229492 81.18564453 39.69335938 81.17578125 C38.51483398 81.15064453 38.51483398 81.15064453 37.3125 81.125 C36.51521484 81.11597656 35.71792969 81.10695313 34.89648438 81.09765625 C32.930861 81.07411585 30.96539225 81.03824547 29 81 C29 81.66 29 82.32 29 83 C27.68 83 26.36 83 25 83 C30.70411166 84.62422163 35.76859536 85.32404264 41.6875 85.25 C42.47133057 85.24395752 43.25516113 85.23791504 44.06274414 85.23168945 C62.55682481 84.9200233 81.28435618 79.9785795 96.66015625 69.55078125 C98.72488063 68.18234122 100.76068348 67.04984123 103 66 C103 66.99 103 67.98 103 69 C103.9075 69.391875 104.815 69.78375 105.75 70.1875 C109.24604315 72.13721637 110.992075 73.546369 113 77 C113 81.88923262 111.35923376 84.54997614 108 88 C104.80663343 90.62565696 102.5325142 91.87638063 98.5 92.8125 C95 92 95 92 93.5390625 89.98046875 C92.83910156 88.75263672 92.83910156 88.75263672 92.125 87.5 C90.18482095 83.98686758 90.18482095 83.98686758 86.73046875 82.33203125 C82.57333774 82.29845184 80.52602303 82.64931798 77 85 C77.7425 85.7425 77.7425 85.7425 78.5 86.5 C80.6028126 90.00468767 80.72469753 93.00592838 80 97 C77.29254442 101.00703426 73.49632506 102.47582201 69 104 C64.64007262 104.60136929 62.78833305 104.50319131 59.0625 102.125 C56.06705418 97.58644572 56.64187462 94.37188068 57 89 C53.37 89 49.74 89 46 89 C45.938125 90.711875 45.87625 92.42375 45.8125 94.1875 C45.43771034 97.86897822 45.05473161 99.90031029 43.25 103.1875 C38.13826679 106.03827429 32.71113388 106.02489407 27 105 C24.12890625 103.140625 24.12890625 103.140625 22 101 C20.92240565 95.61202823 23.18605916 92.39678256 26 88 C22.52372792 87.44352166 19.44951556 87.20515681 16 88 C14.12378548 90.18749556 12.89537519 92.46340547 11.49609375 94.9765625 C10 97 10 97 8.03515625 97.7734375 C4.07207119 97.96531871 2.28026325 97.1985198 -1 94.875 C-3 92 -3 92 -3.6875 89 C-2.70977724 84.73357341 -0.50032445 83.49061548 3 81 C3.7425 80.401875 4.485 79.80375 5.25 79.1875 C7 78 7 78 9 78 C8.34 77.01 7.68 76.02 7 75 C1.45416524 75.90060565 -2.2572101 76.50865212 -6 81 C-6.66 81 -7.32 81 -8 81 C-8.33634376 79.06302033 -8.66897165 77.12539514 -9 75.1875 C-9.185625 74.10855469 -9.37125 73.02960938 -9.5625 71.91796875 C-10.37111057 66.52482501 -10.37111057 66.52482501 -8.6796875 64.1328125 C-5.00975406 60.04981296 -1.32994581 56.3794699 3 53 C2.03641031 51.05569014 1.06525183 49.12099327 0.03515625 47.2109375 C-2.34865306 42.71137776 -3.87930416 38.34020214 -5.09375 33.39453125 C-6.27322186 30.27808191 -7.66600408 28.38889912 -10 26 C-12.96345612 25.25583708 -12.96345612 25.25583708 -16.26953125 25.36328125 C-18.09774414 25.33331055 -18.09774414 25.33331055 -19.96289062 25.30273438 C-21.23326172 25.30595703 -22.50363281 25.30917969 -23.8125 25.3125 C-39.57792623 25.20755861 -39.57792623 25.20755861 -45 23 C-46.9375 20.875 -46.9375 20.875 -48 19 C-51.09322404 19.3344026 -52.58887768 19.5595118 -54.75 21.875 C-56.13728585 24.06446757 -56.13728585 24.06446757 -57 27 C-57.66 27 -58.32 27 -59 27 C-58.67 24.69 -58.34 22.38 -58 20 C-59.98 18.68 -61.96 17.36 -64 16 C-63.67 15.34 -63.34 14.68 -63 14 C-62.34 14.33 -61.68 14.66 -61 15 C-59.12943209 15.2275015 -57.25314042 15.40962811 -55.375 15.5625 C-54.37210938 15.64628906 -53.36921875 15.73007813 -52.3359375 15.81640625 C-51.56507812 15.87699219 -50.79421875 15.93757813 -50 16 C-50.33 15.34 -50.66 14.68 -51 14 C-51.57380143 6.9996225 -51.57380143 6.9996225 -49.515625 3.4140625 C-46.1178085 0.15342493 -42.94393834 -0.70703566 -38.4375 -1.8125 C-37.60557129 -2.02189209 -36.77364258 -2.23128418 -35.91650391 -2.44702148 C-24.54467838 -5.07054968 -10.12941715 -6.98080486 0 0 Z " fill="#151C26" transform="translate(76,84)"/>
<path d="M0 0 C3.82099497 1.39826265 7.0806776 3.17549205 10.5 5.375 C11.87671875 6.25285156 11.87671875 6.25285156 13.28125 7.1484375 C18.00656045 10.36653686 21.52788058 13.27426045 24.625 18.125 C25.19476563 18.99382812 25.76453125 19.86265625 26.3515625 20.7578125 C30.23811278 28.40197538 31.5623091 35.85363875 31.5 44.375 C31.49427979 45.2918457 31.48855957 46.20869141 31.48266602 47.15332031 C31.18077791 58.6474306 26.9810977 67.72672339 19 76 C3.61699607 89.72192838 -13.06598539 92.73436299 -32.92138672 95.59863281 C-34.98193539 95.79519522 -34.98193539 95.79519522 -36 97 C-38.44432861 97.13881703 -40.85828964 97.21265755 -43.3046875 97.23828125 C-44.05183014 97.24793915 -44.79897278 97.25759705 -45.5687561 97.26754761 C-48.00422019 97.2925327 -50.43942127 97.30496403 -52.875 97.3125 C-53.69556885 97.31545074 -54.5161377 97.31840149 -55.36157227 97.32144165 C-85.89872918 97.34657666 -85.89872918 97.34657666 -95 90 C-95.82628906 89.6803125 -96.65257813 89.360625 -97.50390625 89.03125 C-106.56661334 85.28703299 -112.01751696 74.64546674 -115.8125 66.125 C-118.53045327 58.97249139 -118.86636919 51.86533946 -117.1875 44.375 C-116 42 -116 42 -113 41 C-112.67 45.29 -112.34 49.58 -112 54 C-110.2675 52.5459375 -110.2675 52.5459375 -108.5 51.0625 C-104.26326362 47.84711971 -101.26062123 47.18787933 -96 47 C-95.896875 47.61875 -95.79375 48.2375 -95.6875 48.875 C-95.12474627 51.36526484 -95.12474627 51.36526484 -92 53 C-92.88751953 53.14695312 -92.88751953 53.14695312 -93.79296875 53.296875 C-98.73602871 54.23226644 -102.58283838 55.03168328 -106 59 C-106.67927401 62.62279473 -106.46942769 64.25673949 -104.5 67.375 C-101.50300999 69.32304351 -99.51483657 69.80690125 -95.96875 69.66796875 C-92.60155188 68.52552653 -91.48662817 65.87768871 -89.91015625 62.84765625 C-89.60980469 62.23792969 -89.30945313 61.62820312 -89 61 C-88 60 -88 60 -85.71484375 59.90234375 C-84.79832031 59.91394531 -83.88179687 59.92554688 -82.9375 59.9375 C-82.01839844 59.94652344 -81.09929687 59.95554688 -80.15234375 59.96484375 C-79.44207031 59.97644531 -78.73179688 59.98804688 -78 60 C-78 63 -78 63 -79.5 65.3125 C-81.30094497 68.53919307 -81.55406827 70.35897996 -81 74 C-78.66503366 76.37997774 -77.2322506 76.96744973 -73.90625 77.43359375 C-72.7821875 77.43488281 -71.658125 77.43617188 -70.5 77.4375 C-69.3759375 77.45683594 -68.251875 77.47617188 -67.09375 77.49609375 C-63.95320165 77.22856008 -63.95320165 77.22856008 -61.671875 75.33203125 C-59.70110198 72.58307917 -59.22619875 70.58339125 -58.75 67.25 C-58.5025 65.5175 -58.255 63.785 -58 62 C-54.37 62 -50.74 62 -47 62 C-46.9175 63.5675 -46.835 65.135 -46.75 66.75 C-46.40362471 70.05460753 -46.1447432 71.76618406 -44.375 74.625 C-40.37331535 76.9417648 -36.98326275 76.47418883 -32.58203125 75.421875 C-29.20570989 74.42327063 -29.20570989 74.42327063 -26 73 C-24.76553932 69.29661796 -24.55018726 65.85339582 -25 62 C-26.3509288 59.0745356 -26.3509288 59.0745356 -28 57 C-24.3428029 54.97282061 -21.40134906 54.29798734 -17.234375 54.33203125 C-13.42226424 55.47166576 -12.34161845 58.68148421 -10.4609375 61.98046875 C-9.05367065 64.39125869 -9.05367065 64.39125869 -5.5 64.8125 C-0.07902638 63.5540597 2.86220298 61.342017 6.4375 57.125 C8.22132647 54.11625229 8.22132647 54.11625229 8.0625 50.875 C6.4555856 46.52687868 3.65547201 44.89484973 -0.3125 42.75 C-0.869375 42.5025 -1.42625 42.255 -2 42 C-1.5504955 40.68445015 -1.09010284 39.37261642 -0.625 38.0625 C-0.36976563 37.33160156 -0.11453125 36.60070312 0.1484375 35.84765625 C1 34 1 34 3 33 C6.58907896 33.81262165 9.53027468 34.71598004 12.6875 36.625 C15.12462302 38.34071693 15.12462302 38.34071693 19 38 C21.30905137 33.52621297 21.66065191 28.94517384 21 24 C19.02098498 21.57330537 19.02098498 21.57330537 15.1875 21.8125 C12.02729249 21.88733187 9.07681004 22.23079749 6 23 C5.6875 20.25 5.6875 20.25 6 17 C8.5 14.625 8.5 14.625 11 13 C9.93161852 9.90169371 9.05608991 9.03365395 6.1875 7.3125 C3.4047611 6.16666633 0.96468187 5.43598263 -2 5 C-2.33 6.32 -2.66 7.64 -3 9 C-3 7.35 -3 5.7 -3 4 C-2.01 3.67 -1.02 3.34 0 3 C0 2.01 0 1.02 0 0 Z " fill="#141B26" transform="translate(180,111)"/>
<path d="M0 0 C4.03514741 1.87911276 7.83917658 3.83917658 11 7 C16.21811353 6.78701577 20.21157997 5.19618161 24.88671875 2.9375 C28.39875646 1.37947957 31.42082086 0.87368035 35.25 0.9375 C37.10625 0.9684375 37.10625 0.9684375 39 1 C39 2.32 39 3.64 39 5 C39.99 5 40.98 5 42 5 C42 4.01 42 3.02 42 2 C43.98 2.33 45.96 2.66 48 3 C48 3.99 48 4.98 48 6 C48.66 5.71125 49.32 5.4225 50 5.125 C54.82602988 4.92391542 57.44095175 8.00143179 61 11 C62.051875 11.78375 63.10375 12.5675 64.1875 13.375 C67.49308986 16.46021721 70.30655699 19.76217994 72 24 C71.62890625 26.24609375 71.62890625 26.24609375 71 28 C70.34 27.67 69.68 27.34 69 27 C66.04195427 26.66659529 66.04195427 26.66659529 63 27 C61.2488427 28.4166747 61.2488427 28.4166747 60 30 C59.34 30 58.68 30 58 30 C58.41650047 35.03088732 58.94381077 39.33930442 61 44 C61 44.99 61 45.98 61 47 C62.32 47 63.64 47 65 47 C64.67 46.236875 64.34 45.47375 64 44.6875 C63 42 63 42 63 39 C66.33333333 37.33333333 69.66666667 35.66666667 73 34 C74.63012838 35.63012838 74.20976456 37.44437445 74.25 39.6875 C74.22427979 44.16924587 73.43253599 47.14848469 71 51 C70.34 51 69.68 51 69 51 C69 51.99 69 52.98 69 54 C68.01 54 67.02 54 66 54 C66 54.66 66 55.32 66 56 C67.32 56 68.64 56 70 56 C70 56.99 70 57.98 70 59 C68.68 59 67.36 59 66 59 C66 59.66 66 60.32 66 61 C66.99 61 67.98 61 69 61 C68.42655063 63.86724686 68.1385485 64.8614515 66 67 C62.00705668 67.44366037 59.84015454 67.58810818 56.5 65.25 C55 63 55 63 54.9375 61.0625 C56 59 56 59 58.5625 56.5625 C61.5743448 53.98564138 61.5743448 53.98564138 61 49 C55.39 49 49.78 49 44 49 C43.67 50.32 43.34 51.64 43 53 C45.64 54.98 48.28 56.96 51 59 C51 61.25 51 61.25 50 64 C46.40360725 66.80715943 42.34735134 68.25212995 37.8125 68.5625 C33.22356158 67.88544351 31.77535144 66.64264877 29 63 C29 62.34 29 61.68 29 61 C31.97 61 34.94 61 38 61 C38 60.34 38 59.68 38 59 C34.7 59 31.4 59 28 59 C28.33 58.01 28.66 57.02 29 56 C31.64 56 34.28 56 37 56 C37 55.34 37 54.68 37 54 C36.06027344 53.94392578 36.06027344 53.94392578 35.1015625 53.88671875 C34.28429687 53.82097656 33.46703125 53.75523438 32.625 53.6875 C31.40683594 53.60048828 31.40683594 53.60048828 30.1640625 53.51171875 C28 53 28 53 26 50 C25.61500109 48.34450469 25.27206865 46.6777567 25 45 C24.01 45 23.02 45 22 45 C21.34 46.65 20.68 48.3 20 50 C17.69 50 15.38 50 13 50 C12.95875 50.598125 12.9175 51.19625 12.875 51.8125 C12 54 12 54 8.9375 55.75 C7.968125 56.1625 6.99875 56.575 6 57 C6 58.98 6 60.96 6 63 C2.13099817 61.75639227 0.65882497 59.36631475 -1.18359375 55.84765625 C-2.3607807 53.18349631 -2.77177866 50.90982213 -3 48 C-3.09474609 46.90558594 -3.09474609 46.90558594 -3.19140625 45.7890625 C-3.6719549 35.96106748 -0.00883753 26.73377196 6 19 C8.3125 17 8.3125 17 10 16 C9.27506608 11.37471742 6.73385743 9.40527783 3.2734375 6.48828125 C-0.22930869 4.19524637 -2.84706059 4 -7 4 C-8.40086029 5.18665621 -8.40086029 5.18665621 -8.3125 8.5625 C-8.25038199 14.32912198 -5.7476823 18.83046336 -2.1875 23.25 C-1.795625 23.8275 -1.40375 24.405 -1 25 C-1.42578125 27.109375 -1.42578125 27.109375 -2 29 C-7.57041719 23.11663802 -13.0089768 17.25493122 -13.5 8.8125 C-12.94360949 4.57002238 -12.03514403 2.94587509 -9 0 C-5.92385133 -1.53807433 -3.19414265 -0.8946001 0 0 Z " fill="#CADADC" transform="translate(105,41)"/>
<path d="M0 0 C14.28840562 -1.08367121 14.28840562 -1.08367121 20.3515625 4.1015625 C26.08629977 10.70602296 26.58862629 14.95603928 26.54931641 23.66162109 C26.5646492 25.41393288 26.5646492 25.41393288 26.58029175 27.2016449 C26.60806668 31.05911821 26.60617163 34.91587614 26.6015625 38.7734375 C26.60737178 40.77967834 26.61319075 42.78591947 26.62037599 44.79215586 C26.64253629 51.09816363 26.64345869 57.40393311 26.63134766 63.70996094 C26.61927296 70.20065891 26.64388239 76.69048925 26.68648779 83.18103921 C26.72179679 88.76685757 26.73371049 94.35240072 26.72721231 99.93832648 C26.72359767 103.26887485 26.73139414 106.59831182 26.75664139 109.92884445 C26.7813635 113.64643592 26.76779426 117.36202948 26.74462891 121.07958984 C26.76756012 122.71946617 26.76756012 122.71946617 26.79095459 124.39247131 C26.69180913 131.60428912 25.1722154 135.89511441 20 141 C13.82562125 146.30826846 8.46631494 146.65227065 0.5 146.3125 C-1.01980469 146.27866211 -1.01980469 146.27866211 -2.5703125 146.24414062 C-5.04845367 146.1856939 -7.52341566 146.10382997 -10 146 C-7.03760695 143.73929857 -4.02615539 141.82488491 -0.8125 139.9375 C7.5873156 134.6146222 14.50707365 127.42031652 18 118 C18.29648438 117.24976563 18.59296875 116.49953125 18.8984375 115.7265625 C23.15594114 103.03217092 22.69851376 87.10934175 17 75 C10.7183681 63.70514264 0.69226657 56.17157945 -11 51 C-10.47669492 40.01059322 -10.47669492 40.01059322 -8.4375 35.6875 C-6.10876506 29.71378863 -5.72937262 20.99852796 -7.69140625 14.82421875 C-8 13 -8 13 -6.85546875 10.78125 C-6.30503906 10.0284375 -5.75460938 9.275625 -5.1875 8.5 C-3.19460651 5.73551117 -1.44109863 3.09308975 0 0 Z " fill="#189DEB" transform="translate(194,56)"/>
<path d="M0 0 C8.18390805 3.18390805 8.18390805 3.18390805 11 6 C15.76538183 6.47653818 19.44184364 5.35533047 23.8515625 3.75390625 C32.26234622 0.80248578 40.40595989 1.24737687 48.8125 4.0625 C53.68566347 5.68688782 56.96720096 6.67759968 62 5 C63.30656285 4.16879786 64.59740084 3.31256792 65.875 2.4375 C69.59311816 -0.03403979 72.42865472 -0.74659697 76.8828125 -0.5 C80.57562562 0.37210347 82.40561906 2.27590001 85 5 C87.37726344 9.75452688 86.37965804 15.82106188 84.8125 20.6875 C83.38989461 23.28743399 82.09395009 25.13041451 80.25 27.375 C78.11730356 30.2270836 77.74008625 31.84472163 78.1875 35.375 C78.39246094 36.49841797 78.39246094 36.49841797 78.6015625 37.64453125 C79.24264221 41.43444368 79.0608885 45.16402455 79 49 C78.67 49 78.34 49 78 49 C77.505 46.03 77.505 46.03 77 43 C76.34 43 75.68 43 75 43 C75 44.65 75 46.3 75 48 C74.67 48 74.34 48 74 48 C73.505 44.04 73.505 44.04 73 40 C70.50638429 41.20381448 68.31856917 42.45428722 66 44 C65.01 44 64.02 44 63 44 C63.99 47.96 63.99 47.96 65 52 C63.68 52 62.36 52 61 52 C58.55202914 46.39006679 56.71635816 41.1639028 58 35 C60.63729247 31.81973555 62.08551753 31.08965514 66.1875 30.6875 C69 31 69 31 71 32 C70.33723125 24.70954379 65.41259845 20.12388514 60.125 15.625 C55.98451289 12.41426299 53.2274308 11 48 11 C48 10.01 48 9.02 48 8 C46.02 7.67 44.04 7.34 42 7 C42 7.99 42 8.98 42 10 C41.01 10 40.02 10 39 10 C39 8.68 39 7.36 39 6 C31.45665028 6.88203217 25.22525215 8.45258334 18.47265625 11.9765625 C15.68880537 13.1288041 13.9818982 13.40205369 11 13 C8.9375 11.7578125 8.9375 11.7578125 7 10.125 C2.68727539 6.71512615 0.03345983 4.9298807 -5.625 5.125 C-8.94923018 5.73932407 -8.94923018 5.73932407 -10.9375 7.5625 C-12.51700653 11.18607382 -12.79140576 14.18225862 -12 18 C-9.52118714 23.79994076 -6.63428922 28.68809611 -2 33 C-2.62358815 29.83245565 -3.72186131 27.62021505 -5.5 24.9375 C-8.89717757 19.79235606 -9.28897839 16.06854624 -9 10 C-7 8 -7 8 -3.5 7.8125 C2.72201874 8.68175262 6.77970452 13.7191675 11 18 C10.62109375 19.94140625 10.62109375 19.94140625 10 22 C9.360625 22.309375 8.72125 22.61875 8.0625 22.9375 C5.20805007 24.40797421 5.10920596 26.03087073 4 29 C3.18456036 30.696219 2.35100431 32.3838421 1.5 34.0625 C1.0771875 34.89910156 0.654375 35.73570313 0.21875 36.59765625 C-0.1834375 37.39042969 -0.585625 38.18320313 -1 39 C-1.66756863 40.33288197 -2.3345659 41.66605109 -3 43 C-3.66 42.34 -4.32 41.68 -5 41 C-5.66 41.99 -6.32 42.98 -7 44 C-6.855625 43.05125 -6.71125 42.1025 -6.5625 41.125 C-6.52272202 36.21241902 -9.42664372 33.19429207 -12.2421875 29.3984375 C-16.58606769 23.47145431 -17.65020184 18.11166864 -17.49609375 10.88671875 C-16.72736739 6.41357874 -14.48437472 3.78930515 -11 1 C-7.47462714 -0.76268643 -3.84783413 -0.53892858 0 0 Z " fill="#181E29" transform="translate(105,36)"/>
<path d="M0 0 C0.495 1.485 0.495 1.485 1 3 C1.928125 3.45375 2.85625 3.9075 3.8125 4.375 C7.36440733 6.18577629 9.00008734 7.56015023 11 11 C11 15.88923262 9.35923376 18.54997614 6 22 C2.80663343 24.62565696 0.5325142 25.87638063 -3.5 26.8125 C-7 26 -7 26 -8.4609375 23.98046875 C-9.16089844 22.75263672 -9.16089844 22.75263672 -9.875 21.5 C-11.81517905 17.98686758 -11.81517905 17.98686758 -15.26953125 16.33203125 C-19.42666226 16.29845184 -21.47397697 16.64931798 -25 19 C-24.505 19.495 -24.01 19.99 -23.5 20.5 C-21.3971874 24.00468767 -21.27530247 27.00592838 -22 31 C-24.70745558 35.00703426 -28.50367494 36.47582201 -33 38 C-37.35992738 38.60136929 -39.21166695 38.50319131 -42.9375 36.125 C-45.93294582 31.58644572 -45.35812538 28.37188068 -45 23 C-48.63 23 -52.26 23 -56 23 C-56.0928125 25.5678125 -56.0928125 25.5678125 -56.1875 28.1875 C-56.56228966 31.86897822 -56.94526839 33.90031029 -58.75 37.1875 C-63.86173321 40.03827429 -69.28886612 40.02489407 -75 39 C-77.87109375 37.140625 -77.87109375 37.140625 -80 35 C-81.07759435 29.61202823 -78.81394084 26.39678256 -76 22 C-79.47627208 21.44352166 -82.55048444 21.20515681 -86 22 C-87.87621452 24.18749556 -89.10462481 26.46340547 -90.50390625 28.9765625 C-92 31 -92 31 -93.96484375 31.7734375 C-97.92792881 31.96531871 -99.71973675 31.1985198 -103 28.875 C-105 26 -105 26 -105.6875 23 C-104.68309077 18.61712334 -102.64800116 17.55360081 -99 15 C-95.8548375 13.42741875 -92.43577095 13.63475588 -89 14 C-87.32668658 14.64980338 -85.6607065 15.31862189 -84 16 C-60.12697508 22.48109518 -32.43719345 19.53879082 -10.8359375 7.19140625 C-8.18577657 5.50970782 -5.5811894 3.78524772 -3 2 C-2.01 1.34 -1.02 0.68 0 0 Z " fill="#E8EBEC" transform="translate(178,150)"/>
<path d="M0 0 C4.03514741 1.87911276 7.83917658 3.83917658 11 7 C16.21811353 6.78701577 20.21157997 5.19618161 24.88671875 2.9375 C28.39875646 1.37947957 31.42082086 0.87368035 35.25 0.9375 C37.10625 0.9684375 37.10625 0.9684375 39 1 C39 2.32 39 3.64 39 5 C39.99 5 40.98 5 42 5 C42 4.01 42 3.02 42 2 C43.98 2.33 45.96 2.66 48 3 C48 3.99 48 4.98 48 6 C48.78375 5.79375 49.5675 5.5875 50.375 5.375 C51.24125 5.25125 52.1075 5.1275 53 5 C53.99 5.99 53.99 5.99 55 7 C54.625 9.625 54.625 9.625 54 12 C53.34 12 52.68 12 52 12 C52 13.32 52 14.64 52 16 C50.02 16 48.04 16 46 16 C46 16.66 46 17.32 46 18 C46.99 18.33 47.98 18.66 49 19 C49 19.99 49 20.98 49 22 C47.68 22 46.36 22 45 22 C44.34 20.02 43.68 18.04 43 16 C41.35 16.33 39.7 16.66 38 17 C38.04125 18.27875 38.0825 19.5575 38.125 20.875 C38.1953125 23.0546875 38.1953125 23.0546875 38 25 C37.34 25.66 36.68 26.32 36 27 C31.57142857 21.85714286 31.57142857 21.85714286 31 18 C29.02 20.97 29.02 20.97 27 24 C27.60328125 24.30292969 28.2065625 24.60585937 28.828125 24.91796875 C37.53593429 29.4825462 37.53593429 29.4825462 40 34 C41.25303383 38.72297366 41.40793992 41.98901846 39.5625 46.5625 C39.046875 47.366875 38.53125 48.17125 38 49 C37.01 49 36.02 49 35 49 C35.03255208 46.94921875 35.06510417 44.8984375 35.09765625 42.84765625 C35.20561184 40.98267859 35.20561184 40.98267859 34 40 C32.56469761 39.86898863 31.12641036 39.76992531 29.6875 39.6875 C25.32236492 39.28128081 24.03744355 38.14218299 21 35 C17.58241385 35 15.77891592 35.27672093 13.25 37.625 C11.66491184 40.63666751 10.90882918 43.72821497 10 47 C8 49 8 49 5.375 49.125 C4.59125 49.08375 3.8075 49.0425 3 49 C1.85052105 45.44706507 1.9131063 44.20023331 3.4375 40.6875 C3.953125 39.800625 4.46875 38.91375 5 38 C4.01 38 3.02 38 2 38 C2.33 36.35 2.66 34.7 3 33 C4.32 33 5.64 33 7 33 C7.99 32.505 7.99 32.505 9 32 C8.01 30.35 7.02 28.7 6 27 C6.66 26.34 7.32 25.68 8 25 C8.99 25.33 9.98 25.66 11 26 C11.66 24.02 12.32 22.04 13 20 C11.02 20.99 11.02 20.99 9 22 C9.66 20.68 10.32 19.36 11 18 C10.67 17.67 10.34 17.34 10 17 C9.88785156 16.23171875 9.77570313 15.4634375 9.66015625 14.671875 C8.50570314 9.99941388 4.9396078 7.51809983 1 5 C-1.87229319 4.1116619 -3.94512497 4 -7 4 C-8.40086029 5.18665621 -8.40086029 5.18665621 -8.3125 8.5625 C-8.25038199 14.32912198 -5.7476823 18.83046336 -2.1875 23.25 C-1.795625 23.8275 -1.40375 24.405 -1 25 C-1.42578125 27.109375 -1.42578125 27.109375 -2 29 C-7.57041719 23.11663802 -13.0089768 17.25493122 -13.5 8.8125 C-12.94360949 4.57002238 -12.03514403 2.94587509 -9 0 C-5.92385133 -1.53807433 -3.19414265 -0.8946001 0 0 Z " fill="#ACBABB" transform="translate(105,41)"/>
<path d="M0 0 C0.66 0 1.32 0 2 0 C3.3423696 1.65939731 4.6742681 3.32728051 6 5 C7.50426471 6.27466642 9.04825939 7.50366055 10.625 8.6875 C14.45809613 11.69921839 18.09783042 14.82065631 21.625 18.1875 C22.46289062 18.98542969 23.30078125 19.78335938 24.1640625 20.60546875 C26.27100309 23.35345722 26.41991064 24.62271868 26 28 C26.99 28.33 27.98 28.66 29 29 C27.68 29.99 26.36 30.98 25 32 C25.33 33.65 25.66 35.3 26 37 C27.98 37.66 29.96 38.32 32 39 C31.34 40.32 30.68 41.64 30 43 C28.02 43 26.04 43 24 43 C24.02320312 43.58007812 24.04640625 44.16015625 24.0703125 44.7578125 C24.18218947 49.60048692 23.92880863 53.46162675 22 58 C21 59 21 59 19.05053711 59.11352539 C17.8015564 59.10567017 17.8015564 59.10567017 16.52734375 59.09765625 C15.62822266 59.09443359 14.72910156 59.09121094 13.80273438 59.08789062 C12.38444336 59.07532227 12.38444336 59.07532227 10.9375 59.0625 C9.98810547 59.05798828 9.03871094 59.05347656 8.06054688 59.04882812 C5.70696631 59.03700109 3.35352419 59.01968094 1 59 C0.12046196 51.74392028 -0.13461151 44.60942737 -0.09765625 37.3046875 C-0.0962413 36.23123077 -0.09482635 35.15777405 -0.09336853 34.05178833 C-0.08781925 30.6594959 -0.07527647 27.26727212 -0.0625 23.875 C-0.05747844 21.55989679 -0.05291668 19.24479254 -0.04882812 16.9296875 C-0.0378665 11.28643534 -0.02117973 5.64322258 0 0 Z " fill="#9BAFB4" transform="translate(103,105)"/>
<path d="M0 0 C3.67449678 5.51174517 2.71626053 13.54044551 2 20 C-1.4515813 33.69846327 -10.88975908 43.0495509 -22.41015625 50.57421875 C-34.45531374 57.20541405 -48.53342115 58.66733235 -61.92138672 60.59863281 C-63.98193539 60.79519522 -63.98193539 60.79519522 -65 62 C-67.44432861 62.13881703 -69.85828964 62.21265755 -72.3046875 62.23828125 C-73.42540146 62.2527681 -73.42540146 62.2527681 -74.5687561 62.26754761 C-77.00422019 62.2925327 -79.43942127 62.30496403 -81.875 62.3125 C-82.69556885 62.31545074 -83.5161377 62.31840149 -84.36157227 62.32144165 C-115.27683561 62.34688787 -115.27683561 62.34688787 -124 55 C-124.804375 54.71125 -125.60875 54.4225 -126.4375 54.125 C-129.73380964 52.67783967 -131.64514088 50.69126757 -134 48 C-134 47.34 -134 46.68 -134 46 C-129.28528374 46.92711447 -125.2329019 49.28609993 -120.97265625 51.4296875 C-110.32627765 56.00925405 -99.21235214 56.53901626 -87.8125 56.4375 C-87.08699951 56.43445862 -86.36149902 56.43141724 -85.61401367 56.42828369 C-74.3142449 56.35830549 -63.79054859 55.5075911 -53 52 C-52.27973633 51.78037598 -51.55947266 51.56075195 -50.81738281 51.33447266 C-32.93871951 45.84500042 -16.2992859 36.74429391 -6.46875 20.19140625 C-3.49677881 13.73369225 -1.74830058 6.87235206 0 0 Z " fill="#151B26" transform="translate(209,146)"/>
<path d="M0 0 C0.33 0.66 0.66 1.32 1 2 C0.34 2.66 -0.32 3.32 -1 4 C-0.34 4 0.32 4 1 4 C0.25 6.9375 0.25 6.9375 -1 10 C-3.125 10.875 -3.125 10.875 -5 11 C-4.2236068 14.0745356 -4.2236068 14.0745356 -2 16 C-5 18 -5 18 -9 18 C-9.33 19.32 -9.66 20.64 -10 22 C-8.68 21.67 -7.36 21.34 -6 21 C-7.171875 23.5390625 -7.171875 23.5390625 -8.34375 26.078125 C-9.21542924 28.29242836 -9.21542924 28.29242836 -9 32 C-6.58354218 32.16687448 -6.58354218 32.16687448 -4 32 C-1.71034493 30.0558794 -1.71034493 30.0558794 -1.1875 26.6875 C0.16402242 22.49066722 1.47519973 20.62310717 5 18 C7.625 18 7.625 18 10 19 C10.44988281 19.50402344 10.89976563 20.00804688 11.36328125 20.52734375 C13.46784243 22.42094653 14.77002564 22.41988599 17.5625 22.5625 C21.79166667 22.79166667 21.79166667 22.79166667 24 25 C24.33333333 30.33333333 24.33333333 30.33333333 23 33 C23.99 33 24.98 33 26 33 C28.26898847 27.79467352 28.38571835 23.43241757 27 18 C24.16936699 13.34967433 20.57975811 11.21821911 15.75 8.9375 C14 8 14 8 13 6 C13.598125 5.731875 14.19625 5.46375 14.8125 5.1875 C16.97224808 4.01506533 18.35790256 2.80630718 20 1 C20.28875 2.0725 20.5775 3.145 20.875 4.25 C22.04380516 8.32407978 22.04380516 8.32407978 24 12 C24.639375 12.28875 25.27875 12.5775 25.9375 12.875 C29.10526485 14.60287174 29.70055093 16.67250903 31 20 C31.15878593 22.85394048 30.90438986 25.65332062 30.6875 28.5 C30.37043808 34.29605691 30.37043808 34.29605691 32.76953125 39.44140625 C34.79892123 40.91635694 36.68105924 42.05275411 39 43 C39 45.25 39 45.25 38 48 C34.40360725 50.80715943 30.34735134 52.25212995 25.8125 52.5625 C21.22356158 51.88544351 19.77535144 50.64264877 17 47 C17 46.34 17 45.68 17 45 C19.97 45 22.94 45 26 45 C26 44.34 26 43.68 26 43 C22.7 43 19.4 43 16 43 C16.33 42.01 16.66 41.02 17 40 C19.64 40 22.28 40 25 40 C25 39.34 25 38.68 25 38 C24.06027344 37.94392578 24.06027344 37.94392578 23.1015625 37.88671875 C22.28429687 37.82097656 21.46703125 37.75523438 20.625 37.6875 C19.40683594 37.60048828 19.40683594 37.60048828 18.1640625 37.51171875 C16 37 16 37 14 34 C13.61500109 32.34450469 13.27206865 30.6777567 13 29 C12.01 29 11.02 29 10 29 C9.01 31.475 9.01 31.475 8 34 C5.69 34 3.38 34 1 34 C0.95875 34.598125 0.9175 35.19625 0.875 35.8125 C0 38 0 38 -3.0625 39.75 C-4.031875 40.1625 -5.00125 40.575 -6 41 C-6 42.98 -6 44.96 -6 47 C-9.86900183 45.75639227 -11.34117503 43.36631475 -13.18359375 39.84765625 C-14.3607807 37.18349631 -14.77177866 34.90982213 -15 32 C-15.06316406 31.27039063 -15.12632813 30.54078125 -15.19140625 29.7890625 C-15.65628419 20.28155888 -12.26043782 10.27709011 -6 3 C-2.6875 1 -2.6875 1 0 0 Z " fill="#BDD1D5" transform="translate(117,57)"/>
<path d="M0 0 C8.18390805 3.18390805 8.18390805 3.18390805 11 6 C15.76538183 6.47653818 19.44184364 5.35533047 23.8515625 3.75390625 C31.50995519 1.06650663 40.48780857 0.66124825 48 4 C47.34 4.99 46.68 5.98 46 7 C44.68 7 43.36 7 42 7 C42 7.99 42 8.98 42 10 C41.01 10 40.02 10 39 10 C39 8.68 39 7.36 39 6 C31.45665028 6.88203217 25.22525215 8.45258334 18.47265625 11.9765625 C15.68880537 13.1288041 13.9818982 13.40205369 11 13 C8.9375 11.7578125 8.9375 11.7578125 7 10.125 C2.68727539 6.71512615 0.03345983 4.9298807 -5.625 5.125 C-8.94923018 5.73932407 -8.94923018 5.73932407 -10.9375 7.5625 C-12.51700653 11.18607382 -12.79140576 14.18225862 -12 18 C-9.52118714 23.79994076 -6.63428922 28.68809611 -2 33 C-2.62358815 29.83245565 -3.72186131 27.62021505 -5.5 24.9375 C-8.89717757 19.79235606 -9.28897839 16.06854624 -9 10 C-7 8 -7 8 -3.5 7.8125 C2.72201874 8.68175262 6.77970452 13.7191675 11 18 C10.62109375 19.94140625 10.62109375 19.94140625 10 22 C9.360625 22.309375 8.72125 22.61875 8.0625 22.9375 C5.20805007 24.40797421 5.10920596 26.03087073 4 29 C3.18456036 30.696219 2.35100431 32.3838421 1.5 34.0625 C1.0771875 34.89910156 0.654375 35.73570313 0.21875 36.59765625 C-0.1834375 37.39042969 -0.585625 38.18320313 -1 39 C-1.66756863 40.33288197 -2.3345659 41.66605109 -3 43 C-3.66 42.34 -4.32 41.68 -5 41 C-5.66 41.99 -6.32 42.98 -7 44 C-6.855625 43.05125 -6.71125 42.1025 -6.5625 41.125 C-6.52272202 36.21241902 -9.42664372 33.19429207 -12.2421875 29.3984375 C-16.58606769 23.47145431 -17.65020184 18.11166864 -17.49609375 10.88671875 C-16.72736739 6.41357874 -14.48437472 3.78930515 -11 1 C-7.47462714 -0.76268643 -3.84783413 -0.53892858 0 0 Z " fill="#1F242E" transform="translate(105,36)"/>
<path d="M0 0 C0.66 0 1.32 0 2 0 C1.06780561 14.44901301 -5.39167287 23.86207716 -15.75 33.6875 C-25.94033059 42.4706681 -37.31070567 47.1307588 -50 51 C-50.98371582 51.31976807 -50.98371582 51.31976807 -51.98730469 51.64599609 C-62.71879983 55.04780991 -73.51792788 55.41413306 -84.6875 55.5 C-85.72982788 55.51580109 -85.72982788 55.51580109 -86.79321289 55.53192139 C-100.98825651 55.69823683 -116.12951031 53.44874711 -128 45 C-128.8203125 42.8125 -128.8203125 42.8125 -129 41 C-127.47757149 41.43191634 -125.95714081 41.87087562 -124.4375 42.3125 C-123.59058594 42.55613281 -122.74367188 42.79976562 -121.87109375 43.05078125 C-119 44 -119 44 -115.59765625 45.53125 C-96.94766014 53.14514635 -71.91034174 49.94734472 -53 45 C-51.34291016 44.566875 -51.34291016 44.566875 -49.65234375 44.125 C-32.84669236 39.05842408 -15.59185384 29.88096353 -6.92724609 14.03857422 C-4.50607862 9.41198686 -2.23022087 4.7211169 0 0 Z " fill="#657F8B" transform="translate(206,148)"/>
<path d="M0 0 C0.55429688 0.97582031 1.10859375 1.95164063 1.6796875 2.95703125 C2.41140091 4.24222019 3.14317492 5.52737464 3.875 6.8125 C4.23980469 7.45509766 4.60460937 8.09769531 4.98046875 8.75976562 C6.58083901 11.56768798 8.20642866 14.30964298 10 17 C10.13525391 19.26831055 10.13525391 19.26831055 9.9765625 21.88671875 C9.925 22.82451172 9.8734375 23.76230469 9.8203125 24.72851562 C9.75585938 25.70498047 9.69140625 26.68144531 9.625 27.6875 C9.53992188 29.16959961 9.53992188 29.16959961 9.453125 30.68164062 C9.31166481 33.12182885 9.16025726 35.56098591 9 38 C8.26265625 37.2575 7.5253125 36.515 6.765625 35.75 C-3.47982196 25.56243692 -11.12674548 19.27682876 -26 19 C-26.42064893 12.90059045 -26.08964656 9.86336347 -22 5 C-15.66723032 -1.16611785 -8.30794879 -0.13304544 0 0 Z " fill="#1489E7" transform="translate(84,56)"/>
<path d="M0 0 C1.34821352 0.04489611 2.69877121 0.04026584 4.046875 -0.0078125 C4.81 -0.02457031 5.573125 -0.04132813 6.359375 -0.05859375 C7.9377504 -0.10243751 9.51592461 -0.15436044 11.09375 -0.21484375 C18.90282574 -0.35897099 24.83349231 1.59561852 30.9375 6.5625 C31.68902344 7.16191406 32.44054687 7.76132813 33.21484375 8.37890625 C35 10 35 10 36 12 C32.45232716 10.7116346 29.66023124 9.167354 26.625 6.9375 C22.62271007 4.18215467 19.82674712 3.20539349 15 3 C15 4.32 15 5.64 15 7 C11.37 7 7.74 7 4 7 C4 8.65 4 10.3 4 12 C3 13 3 13 0.4375 13.0625 C-0.366875 13.041875 -1.17125 13.02125 -2 13 C-1.67 13.66 -1.34 14.32 -1 15 C0.2375 14.79375 1.475 14.5875 2.75 14.375 C9.8888272 13.57174052 17.67617174 14.44003017 24 18 C24 18.99 24 19.98 24 21 C22.68 21.33 21.36 21.66 20 22 C20 22.66 20 23.32 20 24 C16.37 24 12.74 24 9 24 C9 23.34 9 22.68 9 22 C8.32420898 21.9906543 7.64841797 21.98130859 6.95214844 21.97167969 C3.8840289 21.91792699 0.81742613 21.83429008 -2.25 21.75 C-3.31347656 21.73582031 -4.37695312 21.72164062 -5.47265625 21.70703125 C-6.49746094 21.67480469 -7.52226563 21.64257812 -8.578125 21.609375 C-9.52075195 21.58842773 -10.46337891 21.56748047 -11.43457031 21.54589844 C-14.70335583 20.85033273 -15.94366305 19.58341685 -18 17 C-18 16.34 -18 15.68 -18 15 C-18.66 15 -19.32 15 -20 15 C-20 14.34 -20 13.68 -20 13 C-20.66 13 -21.32 13 -22 13 C-22.33 13.99 -22.66 14.98 -23 16 C-23.48648649 8.82432432 -23.48648649 8.82432432 -21.453125 5.37890625 C-18.42100591 2.43852325 -15.50304403 1.54997522 -11.5 0.625 C-10.83613281 0.44839844 -10.17226563 0.27179688 -9.48828125 0.08984375 C-5.87299708 -0.81217326 -3.53608317 -0.93457268 0 0 Z " fill="#171C24" transform="translate(48,82)"/>
<path d="M0 0 C0.33 0 0.66 0 1 0 C1.13935569 9.37970159 1.2457999 18.75904388 1.31087303 28.13955688 C1.34211387 32.49591785 1.3844518 36.85156775 1.45263672 41.20751953 C1.51809141 45.41564871 1.5537605 49.62309639 1.56926346 53.83169556 C1.58030337 55.4328585 1.60186236 57.03398641 1.63438034 58.63485718 C1.92950446 73.77350198 1.92950446 73.77350198 -3.3510437 79.54780579 C-10.25637155 85.62915382 -15.31842375 86.70410266 -24.5 86.3125 C-25.51320312 86.28994141 -26.52640625 86.26738281 -27.5703125 86.24414062 C-30.04845367 86.1856939 -32.52341566 86.10382997 -35 86 C-32.03760695 83.73929857 -29.02615539 81.82488491 -25.8125 79.9375 C-14.2630972 72.61876079 -8.08972102 63.04082925 -4.62402344 50.10473633 C-3.5661835 44.84161017 -3.68481177 39.65903548 -3.8125 34.3125 C-3.82603516 33.21744141 -3.83957031 32.12238281 -3.85351562 30.99414062 C-3.88843163 28.32888586 -3.93746283 25.66472496 -4 23 C-2 25 -2 25 -1 30 C-0.67 20.1 -0.34 10.2 0 0 Z " fill="#123FA8" transform="translate(219,116)"/>
<path d="M0 0 C1.32 0.33 2.64 0.66 4 1 C4.66 3.31 5.32 5.62 6 8 C8.97 8.66 11.94 9.32 15 10 C15 10.66 15 11.32 15 12 C11.92382812 12.29296875 11.92382812 12.29296875 8.84765625 12.5859375 C8.23792969 12.72257812 7.62820312 12.85921875 7 13 C6.67 13.66 6.34 14.32 6 15 C9.3 15 12.6 15 16 15 C16 15.66 16 16.32 16 17 C13.03 17 10.06 17 7 17 C7.33 17.99 7.66 18.98 8 20 C5.69 20.33 3.38 20.66 1 21 C1.825 21.78375 2.65 22.5675 3.5 23.375 C6 26 6 26 6 28 C-2.74385506 28.91328467 -8.85099569 27.18208249 -16 22 C-16.66 21.01 -17.32 20.02 -18 19 C-17.34 19 -16.68 19 -16 19 C-16.33 17.02 -16.66 15.04 -17 13 C-12.25 10 -12.25 10 -10 10 C-9.67 8.35 -9.34 6.7 -9 5 C-6.69 5 -4.38 5 -2 5 C-1.34 3.35 -0.68 1.7 0 0 Z " fill="#859DA3" transform="translate(127,85)"/>
<path d="M0 0 C2.64 0 5.28 0 8 0 C11.19888237 5.18439557 13.22099752 10.18929367 15 16 C15.391875 17.175625 15.78375 18.35125 16.1875 19.5625 C16.455625 20.366875 16.72375 21.17125 17 22 C16.40832031 22.46148437 15.81664063 22.92296875 15.20703125 23.3984375 C8.39279718 29.02323757 4.78022452 34.65932644 2 43 C1.34 43 0.68 43 0 43 C0 28.81 0 14.62 0 0 Z " fill="#1E76D7" transform="translate(57,114)"/>
<path d="M0 0 C1.65161581 0.75836443 3.29617138 1.53212076 4.9375 2.3125 C5.85402344 2.74175781 6.77054688 3.17101562 7.71484375 3.61328125 C10 5 10 5 11 8 C11.66 8 12.32 8 13 8 C13 14.27 13 20.54 13 27 C11.68 27 10.36 27 9 27 C9 29.31 9 31.62 9 34 C4.35150485 36.3992233 0.08913926 36.19957409 -5 36 C-4.50693359 35.16855469 -4.50693359 35.16855469 -4.00390625 34.3203125 C-2.83846649 31.62665018 -2.82864246 29.7923822 -2.9375 26.875 C-3.09722222 22.19444444 -3.09722222 22.19444444 -2 20 C0.33333333 19.33333333 2.66666667 18.66666667 5 18 C5.33 17.34 5.66 16.68 6 16 C3.69 15.34 1.38 14.68 -1 14 C-1.33 12.35 -1.66 10.7 -2 9 C-0.68 8.01 0.64 7.02 2 6 C1.34 5.67 0.68 5.34 0 5 C0 3.35 0 1.7 0 0 Z " fill="#71878E" transform="translate(129,128)"/>
<path d="M0 0 C5.38096904 0.43047752 8.85493157 1.46152695 13 5 C13 6.32 13 7.64 13 9 C12.0409375 9.680625 12.0409375 9.680625 11.0625 10.375 C8.67154491 11.91176363 8.67154491 11.91176363 8.25 15.1875 C8.1675 16.115625 8.085 17.04375 8 18 C8.66 17.67 9.32 17.34 10 17 C13.98004181 15.6733194 16.80281841 15.66151761 21 16 C23.13784052 17.55479311 23.89137271 18.44088892 24.3984375 21.05078125 C24.34585861 26.12464451 23.73210649 29.56032695 21 34 C18.07414308 33.58202044 16.10029274 33.06171861 13.5625 31.5 C10.6766476 29.81072054 8.29736263 29.38341426 5 29 C5.15597656 28.42507812 5.31195313 27.85015625 5.47265625 27.2578125 C6.622214 22.3360023 7.03370528 18.00412248 4.66015625 13.40234375 C3.56598449 11.6954358 2.45815798 9.99719311 1.3359375 8.30859375 C-0.33210233 5.42610387 -0.51687639 3.27355047 0 0 Z " fill="#F3F5F6" transform="translate(178,116)"/>
<path d="M0 0 C0.33 0 0.66 0 1 0 C1.28875 1.0725 1.5775 2.145 1.875 3.25 C3.04380516 7.32407978 3.04380516 7.32407978 5 11 C5.639375 11.28875 6.27875 11.5775 6.9375 11.875 C10.10526485 13.60287174 10.70055093 15.67250903 12 19 C12.15878593 21.85394048 11.90438986 24.65332062 11.6875 27.5 C11.37043808 33.29605691 11.37043808 33.29605691 13.76953125 38.44140625 C15.79892123 39.91635694 17.68105924 41.05275411 20 42 C20 44.25 20 44.25 19 47 C15.40360725 49.80715943 11.34735134 51.25212995 6.8125 51.5625 C2.22356158 50.88544351 0.77535144 49.64264877 -2 46 C-2 45.34 -2 44.68 -2 44 C0.97 44 3.94 44 7 44 C7 43.34 7 42.68 7 42 C3.7 42 0.4 42 -3 42 C-2.67 41.01 -2.34 40.02 -2 39 C0.64 39 3.28 39 6 39 C4.74458443 36.48916886 3.49936512 36.12874554 1 35 C1.763125 34.62875 2.52625 34.2575 3.3125 33.875 C6.7035504 31.50915088 7.69191397 29.92425808 9 26 C9.2005096 21.45244231 8.62694225 18.02997656 6.25 14.125 C3.33635656 11.37322564 0.35513618 9.63992542 -3.25 7.9375 C-5 7 -5 7 -6 5 C-5.38125 4.731875 -4.7625 4.46375 -4.125 4.1875 C-1.7004767 3.04443152 -1.7004767 3.04443152 0 0 Z " fill="#F1F3F4" transform="translate(136,58)"/>
<path d="M0 0 C3.83669597 2.02693372 6.99766408 4.10071426 9 8 C10.16395525 12.71898136 10.40268909 16.00203138 8.5625 20.5625 C8.046875 21.366875 7.53125 22.17125 7 23 C6.01 23 5.02 23 4 23 C4.03255208 20.94921875 4.06510417 18.8984375 4.09765625 16.84765625 C4.20561184 14.98267859 4.20561184 14.98267859 3 14 C1.56469761 13.86898863 0.12641036 13.76992531 -1.3125 13.6875 C-5.67763508 13.28128081 -6.96255645 12.14218299 -10 9 C-13.41758615 9 -15.22108408 9.27672093 -17.75 11.625 C-19.33508816 14.63666751 -20.09117082 17.72821497 -21 21 C-23 23 -23 23 -25.625 23.125 C-26.40875 23.08375 -27.1925 23.0425 -28 23 C-28.75 20.75 -28.75 20.75 -29 18 C-27.4375 16 -27.4375 16 -25 14 C-20.61423276 10.36747851 -20.61423276 10.36747851 -16.5 6.4375 C-11.39896109 1.46398706 -7.18627777 -1.43438678 0 0 Z " fill="#242B37" transform="translate(136,67)"/>
<path d="M0 0 C0.66 0 1.32 0 2 0 C3.2890625 1.53125 3.2890625 1.53125 4.625 3.5 C5.07101563 4.1496875 5.51703125 4.799375 5.9765625 5.46875 C6.31429687 5.9740625 6.65203125 6.479375 7 7 C6.34 7 5.68 7 5 7 C5 8.65 5 10.3 5 12 C6.65 12 8.3 12 10 12 C10 13.32 10 14.64 10 16 C8.02 16.99 8.02 16.99 6 18 C6.33 19.32 6.66 20.64 7 22 C8.98 22 10.96 22 13 22 C13.33 23.32 13.66 24.64 14 26 C12.20963542 26.52083333 10.41927083 27.04166667 8.62890625 27.5625 C6.33104618 29.59034774 6.37779235 31.65150444 6.13305664 34.59765625 C6.08914795 35.39042969 6.04523926 36.18320313 6 37 C5.94642334 37.86496094 5.89284668 38.72992188 5.83764648 39.62109375 C5.6814416 42.41347264 5.55505156 45.2057417 5.4375 48 C5.39431641 48.96550781 5.35113281 49.93101562 5.30664062 50.92578125 C5.20158287 53.28374425 5.09943086 55.64179416 5 58 C4.01 58 3.02 58 2 58 C0.16813878 50.99899407 -0.26797798 44.62036532 -0.1953125 37.40234375 C-0.1924826 36.32747208 -0.18965271 35.2526004 -0.18673706 34.14515686 C-0.17562274 30.74248698 -0.15053447 27.34008911 -0.125 23.9375 C-0.11495889 21.61784237 -0.10583503 19.29818057 -0.09765625 16.97851562 C-0.07571212 11.31891903 -0.04232265 5.65947896 0 0 Z " fill="#EDEFF0" transform="translate(103,105)"/>
<path d="M0 0 C0.10183594 0.59296875 0.20367187 1.1859375 0.30859375 1.796875 C1.11355652 4.36184111 2.11566902 5.42743483 4.0625 7.25 C4.61035156 7.77078125 5.15820312 8.2915625 5.72265625 8.828125 C6.35494141 9.40820312 6.35494141 9.40820312 7 10 C6.34 11.98 5.68 13.96 5 16 C4.34 16 3.68 16 3 16 C3 18.31 3 20.62 3 23 C2.09507813 23.14695313 2.09507813 23.14695313 1.171875 23.296875 C-3.80569116 24.22816157 -6.64549451 24.97459341 -10 29 C-10.66 29 -11.32 29 -12 29 C-12.33634376 27.06302033 -12.66897165 25.12539514 -13 23.1875 C-13.185625 22.10855469 -13.37125 21.02960938 -13.5625 19.91796875 C-14.37059113 14.52828949 -14.37059113 14.52828949 -12.71484375 12.16796875 C-8.72880576 7.72638356 -4.62467707 3.77524659 0 0 Z " fill="#1D242E" transform="translate(80,136)"/>
<path d="M0 0 C4.03514741 1.87911276 7.83917658 3.83917658 11 7 C14.24218881 6.75983787 17.02296234 6.5042775 19.9375 5 C23.16718959 3.43408989 26.44220809 3.35577919 30 3 C30.12375 3.639375 30.2475 4.27875 30.375 4.9375 C30.58125 5.618125 30.7875 6.29875 31 7 C31.66 7.33 32.32 7.66 33 8 C31 9 31 9 27 9 C26.34 10.65 25.68 12.3 25 14 C24.34 13.01 23.68 12.02 23 11 C20.23723823 11.52268466 17.6739124 12.10869587 15 13 C14.67 13.66 14.34 14.32 14 15 C10.56935006 13.52420239 8.3894072 11.55317152 5.75 8.9375 C1.44019782 4.99874039 -1.18842693 3.89622191 -7 4 C-8.40086029 5.18665621 -8.40086029 5.18665621 -8.3125 8.5625 C-8.25038199 14.32912198 -5.7476823 18.83046336 -2.1875 23.25 C-1.795625 23.8275 -1.40375 24.405 -1 25 C-1.42578125 27.109375 -1.42578125 27.109375 -2 29 C-7.57041719 23.11663802 -13.0089768 17.25493122 -13.5 8.8125 C-12.94360949 4.57002238 -12.03514403 2.94587509 -9 0 C-5.92385133 -1.53807433 -3.19414265 -0.8946001 0 0 Z " fill="#EDF0F0" transform="translate(105,41)"/>
<path d="M0 0 C0.61875 0.144375 1.2375 0.28875 1.875 0.4375 C5.50688772 1.09123979 9.11402771 1.36185802 12.79296875 1.62109375 C15 2 15 2 17 4 C19.09595371 3.72955436 21.19159963 3.45638417 23.28515625 3.16796875 C29.61289188 2.77646856 36.44574406 3.87325734 42 7 C42 7.99 42 8.98 42 10 C40.68 10.33 39.36 10.66 38 11 C38 11.66 38 12.32 38 13 C34.37 13 30.74 13 27 13 C27 12.34 27 11.68 27 11 C25.9941687 11.00169189 25.9941687 11.00169189 24.96801758 11.00341797 C21.91516712 10.9912752 18.86479773 10.9335924 15.8125 10.875 C14.75740234 10.87757812 13.70230469 10.88015625 12.61523438 10.8828125 C4.9801477 10.69012892 4.9801477 10.69012892 2.1394043 8.68994141 C0.75 7.09375 0.75 7.09375 -1 4 C-0.8125 1.625 -0.8125 1.625 0 0 Z " fill="#E7EDEE" transform="translate(30,93)"/>
<path d="M0 0 C6.22201874 0.86925262 10.27970452 5.9066675 14.5 10.1875 C14.12109375 12.12890625 14.12109375 12.12890625 13.5 14.1875 C12.860625 14.496875 12.22125 14.80625 11.5625 15.125 C8.72794345 16.5852261 8.61340395 18.26481463 7.5 21.1875 C6.19908163 22.55247874 4.86872447 23.89052318 3.5 25.1875 C2.36863414 23.62960317 1.24517679 22.06596143 0.125 20.5 C-0.50148438 19.62988281 -1.12796875 18.75976562 -1.7734375 17.86328125 C-5.26368154 12.45419264 -5.91394939 8.5002282 -5.5 2.1875 C-3.5 0.1875 -3.5 0.1875 0 0 Z " fill="#141922" transform="translate(101.5,43.8125)"/>
<path d="M0 0 C5.44890633 1.3803896 10.15061778 2.91079271 13.96484375 7.203125 C16.4035995 11.43643687 15.55631125 15.66349276 14.47265625 20.21484375 C13.12645548 23.81141 11.82561619 25.54396921 8.42578125 27.421875 C0.37824336 30.5592329 0.37824336 30.5592329 -4 29 C-3.34 28.67 -2.68 28.34 -2 28 C-1.34227572 24.97065509 -1.34227572 24.97065509 -1 22 C0.32 22 1.64 22 3 22 C3 15.73 3 9.46 3 3 C2.34 3 1.68 3 1 3 C0.67 2.01 0.34 1.02 0 0 Z " fill="#323F49" transform="translate(139,133)"/>
<path d="M0 0 C3.05018895 2.0334593 4.74777783 3.36944458 6.125 6.8125 C5.94649602 11.36435154 4.06478633 13.7461266 1 17 C-2.25616373 19.76066055 -4.38683029 20.87091164 -8.5625 21.75 C-12 21 -12 21 -13.5546875 19.203125 C-14.82572759 17.17807808 -15.95814934 15.15091749 -17 13 C-13.01999677 9.90653777 -8.75732484 7.34495995 -4.4609375 4.71875 C-1.78484477 3.07218053 -1.78484477 3.07218053 0 0 Z " fill="#869DA4" transform="translate(183,155)"/>
<path d="M0 0 C0.66 0.33 1.32 0.66 2 1 C2.48543689 8.2815534 2.48543689 8.2815534 0.4375 11.3125 C-4.7723487 14.91931833 -9.62189462 16.9449045 -16 16 C-18.9375 13.875 -18.9375 13.875 -21 11 C-21.12890625 7.8203125 -21.12890625 7.8203125 -21 5 C-20.15236084 4.82609741 -20.15236084 4.82609741 -19.28759766 4.64868164 C-16.73279309 4.12284704 -14.1788964 3.59272705 -11.625 3.0625 C-10.73554688 2.88009766 -9.84609375 2.69769531 -8.9296875 2.50976562 C-7.65351563 2.24389648 -7.65351563 2.24389648 -6.3515625 1.97265625 C-5.56604004 1.81031494 -4.78051758 1.64797363 -3.97119141 1.48071289 C-1.94039254 1.06293278 -1.94039254 1.06293278 0 0 Z " fill="#859DA3" transform="translate(154,172)"/>
<path d="M0 0 C0.66386719 0.48082031 1.32773438 0.96164063 2.01171875 1.45703125 C5.62376172 3.32207305 8.83345814 3.55423066 12.8125 3.6875 C13.85180664 3.73874023 13.85180664 3.73874023 14.91210938 3.79101562 C16.60752849 3.87286344 18.30373458 3.93812365 20 4 C20.2109375 9.640625 20.2109375 9.640625 18.3125 12.875 C13.24465881 16.12606794 7.86083786 16.05175927 2 15 C-0.875 13.1484375 -0.875 13.1484375 -3 11 C-3.78773146 6.37207768 -2.66275012 3.77222934 0 0 Z " fill="#889EA4" transform="translate(101,174)"/>
<path d="M0 0 C0.66 0 1.32 0 2 0 C2 0.66 2 1.32 2 2 C2.66 2 3.32 2 4 2 C4.65742187 3.21236328 4.65742187 3.21236328 5.328125 4.44921875 C9.71036621 8.63284961 14.91869468 7.78331104 20.75 7.8125 C21.92433594 7.83763672 23.09867188 7.86277344 24.30859375 7.88867188 C27.20606565 7.94756358 30.10202605 7.98382969 33 8 C32.0409375 8.433125 32.0409375 8.433125 31.0625 8.875 C28.84793921 9.82823451 28.84793921 9.82823451 28 12 C31.96 12 35.92 12 40 12 C40 12.33 40 12.66 40 13 C35.47990456 13.2270593 30.95901094 13.42831539 26.4375 13.625 C25.16068359 13.68945312 23.88386719 13.75390625 22.56835938 13.8203125 C10.46310184 14.32338814 10.46310184 14.32338814 5 12 C3.0625 9.875 3.0625 9.875 2 8 C-1.09322404 8.3344026 -2.58887768 8.5595118 -4.75 10.875 C-6.13728585 13.06446757 -6.13728585 13.06446757 -7 16 C-7.66 16 -8.32 16 -9 16 C-8.67 13.69 -8.34 11.38 -8 9 C-9.98 7.68 -11.96 6.36 -14 5 C-13.67 4.34 -13.34 3.68 -13 3 C-12.34 3.33 -11.68 3.66 -11 4 C-9.12943209 4.2275015 -7.25314042 4.40962811 -5.375 4.5625 C-3.87066406 4.68818359 -3.87066406 4.68818359 -2.3359375 4.81640625 C-1.56507812 4.87699219 -0.79421875 4.93757813 0 5 C0 3.35 0 1.7 0 0 Z " fill="#0F141D" transform="translate(26,95)"/>
<path d="M0 0 C0.33 0.66 0.66 1.32 1 2 C0.34 2.66 -0.32 3.32 -1 4 C-0.34 4 0.32 4 1 4 C0.25 6.9375 0.25 6.9375 -1 10 C-3.125 10.875 -3.125 10.875 -5 11 C-4.2236068 14.0745356 -4.2236068 14.0745356 -2 16 C-5 18 -5 18 -9 18 C-9.33 19.32 -9.66 20.64 -10 22 C-8.68 21.67 -7.36 21.34 -6 21 C-6.474375 21.94875 -6.94875 22.8975 -7.4375 23.875 C-10.05062215 29.93941554 -10.05796615 36.48460443 -10 43 C-13.10695521 40.74039621 -13.86248176 37.95980765 -14.64453125 34.296875 C-16.34026962 23.33979632 -13.43585819 13.81370342 -7.37109375 4.59375 C-5.30341267 2.19029165 -2.93063019 1.09046705 0 0 Z " fill="#E9EDEE" transform="translate(117,57)"/>
<path d="M0 0 C2.31 0 4.62 0 7 0 C7.2475 0.78375 7.495 1.5675 7.75 2.375 C11.04581829 13.75486294 11.04581829 13.75486294 18.80859375 21.9609375 C20.51117369 22.70774319 22.25375085 23.36194742 24 24 C24 25.98 24 27.96 24 30 C16.07397899 28.79386637 10.34405476 23.39136861 5.578125 17.1328125 C2.40810481 11.84131726 0 6.16601598 0 0 Z " fill="#66828F" transform="translate(75,115)"/>
<path d="M0 0 C5.47035213 3.79037089 9.89962427 7.75027653 14 13 C13.21654285 14.17219543 12.42297164 15.33763668 11.625 16.5 C11.18414062 17.1496875 10.74328125 17.799375 10.2890625 18.46875 C9.86367187 18.9740625 9.43828125 19.479375 9 20 C8.34 20 7.68 20 7 20 C6.67 18.68 6.34 17.36 6 16 C5.05125 16.20625 4.1025 16.4125 3.125 16.625 C2.09375 16.74875 1.0625 16.8725 0 17 C-0.66 16.34 -1.32 15.68 -2 15 C-1.625 12.875 -1.625 12.875 -1 11 C0.32 10.67 1.64 10.34 3 10 C3 8.68 3 7.36 3 6 C1.35 6 -0.3 6 -2 6 C-2 4.35 -2 2.7 -2 1 C-1.34 0.67 -0.68 0.34 0 0 Z M6 20 C7.125 21.75 7.125 21.75 8 24 C7.125 26.25 7.125 26.25 6 28 C4.02 28 2.04 28 0 28 C0 26.02 0 24.04 0 22 C1.98 21.34 3.96 20.68 6 20 Z " fill="#96A6AB" transform="translate(110,111)"/>
<path d="M0 0 C0.79792969 0.00386719 1.59585938 0.00773437 2.41796875 0.01171875 C3.21589844 0.00785156 4.01382813 0.00398438 4.8359375 0 C10.79136108 0.01011108 10.79136108 0.01011108 11.91796875 1.13671875 C11.95860707 2.8028899 11.96068975 4.4705997 11.91796875 6.13671875 C11.29921875 6.38421875 10.68046875 6.63171875 10.04296875 6.88671875 C7.47547059 8.39701179 7.19981146 9.49763083 5.91796875 12.13671875 C4.25130208 13.80338542 2.58463542 15.47005208 0.91796875 17.13671875 C-0.13490939 18.77049517 -1.15473135 20.42853472 -2.08203125 22.13671875 C-3.07203125 21.80671875 -4.06203125 21.47671875 -5.08203125 21.13671875 C-5.08203125 20.14671875 -5.08203125 19.15671875 -5.08203125 18.13671875 C-2.58203125 16.44921875 -2.58203125 16.44921875 -0.08203125 15.13671875 C-0.04330438 12.80132968 -0.04330438 12.80132968 -1.08203125 10.13671875 C-3.25375315 8.20513918 -5.60804172 6.65470188 -8.08203125 5.13671875 C-6.83881632 -0.36894735 -5.66235958 0.00961351 0 0 Z " fill="#111820" transform="translate(155.08203125,88.86328125)"/>
<path d="M0 0 C8.91 0 17.82 0 27 0 C27 0.66 27 1.32 27 2 C24.03 2 21.06 2 18 2 C18.33 2.99 18.66 3.98 19 5 C16.69 5.33 14.38 5.66 12 6 C12.825 6.78375 13.65 7.5675 14.5 8.375 C17 11 17 11 17 13 C15.25034642 13.05429959 13.50020213 13.09292823 11.75 13.125 C10.77546875 13.14820312 9.8009375 13.17140625 8.796875 13.1953125 C5.9803502 12.99862781 4.39050964 12.44568916 2 11 C2.33 9.68 2.66 8.36 3 7 C1.68 6.01 0.36 5.02 -1 4 C-0.67 2.68 -0.34 1.36 0 0 Z " fill="#687D84" transform="translate(116,100)"/>
<path d="M0 0 C1.98 0.99 3.96 1.98 6 3 C5.67 4.98 5.34 6.96 5 9 C5.66 9.33 6.32 9.66 7 10 C6.67 11.32 6.34 12.64 6 14 C3.69 14 1.38 14 -1 14 C-1.04125 14.598125 -1.0825 15.19625 -1.125 15.8125 C-2 18 -2 18 -5.0625 19.75 C-6.031875 20.1625 -7.00125 20.575 -8 21 C-8 22.98 -8 24.96 -8 27 C-11.875 25.25 -11.875 25.25 -13 23 C-13.06996014 21.29297265 -13.08440154 19.58331997 -13.0625 17.875 C-13.05347656 16.96492188 -13.04445313 16.05484375 -13.03515625 15.1171875 C-13.02355469 14.41851562 -13.01195313 13.71984375 -13 13 C-11 12 -11 12 -8.5 12.0625 C-5.82346261 12.28293845 -5.82346261 12.28293845 -4 10 C-3.32215008 7.66989091 -2.65583207 5.33640176 -2 3 C-1.34 2.01 -0.68 1.02 0 0 Z " fill="#9CAFB3" transform="translate(119,77)"/>
<path d="M0 0 C0.33 0.99 0.66 1.98 1 3 C3.00016466 4.20882096 3.00016466 4.20882096 5 5 C3.00772866 10.10159654 -0.95893829 12.50490354 -5.40234375 15.42578125 C-11.65707651 18.16265128 -17.37622258 17.15825616 -24 16 C-22.61858893 13.23717785 -20.92738973 12.77826255 -18.1875 11.375 C-11.81718973 7.99756516 -5.93919503 4.0838444 0 0 Z " fill="#F0F2F3" transform="translate(178,150)"/>
<path d="M0 0 C2.02915769 0.93942486 4.03875312 1.92598385 6 3 C3.577993 6.2870095 1.82950068 8.52404661 -2 10 C-8.54862246 10.9008687 -14.35615784 11.1327946 -19.8125 7.0625 C-21.70703125 5.41015625 -21.70703125 5.41015625 -23 4 C-23 3.67 -23 3.34 -23 3 C-22.10796875 2.87882812 -21.2159375 2.75765625 -20.296875 2.6328125 C-18.54117188 2.38144531 -18.54117188 2.38144531 -16.75 2.125 C-15.58984375 1.96257812 -14.4296875 1.80015625 -13.234375 1.6328125 C-2.09923664 -0.54580153 -2.09923664 -0.54580153 0 0 Z " fill="#B6C9CC" transform="translate(161,110)"/>
<path d="M0 0 C0 0.66 0 1.32 0 2 C-0.99 2.495 -0.99 2.495 -2 3 C-2.33425735 5.37374861 -2.33425735 5.37374861 -2 8 C-0.0995533 9.84315671 -0.0995533 9.84315671 2 11 C1 12 1 12 -1.3125 12.3125 C-4 12 -4 12 -5.9375 9.9375 C-7.90038156 7.65053023 -7.90038156 7.65053023 -11.0625 8 C-14.49950791 9.17004525 -15.32591283 9.81923437 -17 13 C-17.68255989 15.32873375 -18.35050775 17.66182791 -19 20 C-21 22 -21 22 -23.625 22.125 C-24.40875 22.08375 -25.1925 22.0425 -26 22 C-26.75 19.75 -26.75 19.75 -27 17 C-25.4375 15 -25.4375 15 -23 13 C-18.6107633 9.37019008 -18.6107633 9.37019008 -14.5625 5.375 C-10.32243057 1.44517956 -5.81299577 -0.52845416 0 0 Z " fill="#0F141E" transform="translate(134,68)"/>
<path d="M0 0 C3.24271506 0.5590888 4.93057424 1.4132178 7 4 C7 4.66 7 5.32 7 6 C6.01 6 5.02 6 4 6 C4 6.66 4 7.32 4 8 C5.32 8 6.64 8 8 8 C8 8.99 8 9.98 8 11 C6.68 11 5.36 11 4 11 C4 11.66 4 12.32 4 13 C4.99 13 5.98 13 7 13 C6.42655063 15.86724686 6.1385485 16.8614515 4 19 C0.00705668 19.44366037 -2.15984546 19.58810818 -5.5 17.25 C-7 15 -7 15 -7.0625 13.0625 C-6 11 -6 11 -3.5 8.625 C-0.66784481 5.65123705 -0.28052564 4.02086746 0 0 Z " fill="#EFF1F2" transform="translate(167,89)"/>
<path d="M0 0 C2.90748557 1.45374278 3.24641399 3.49411675 4.5625 6.4375 C7.74042192 12.99685607 11.88613536 17.86665397 17 23 C17.58394531 23.58652344 18.16789062 24.17304688 18.76953125 24.77734375 C19.37861328 25.38255859 19.37861328 25.38255859 20 26 C15.24890771 26.59388654 12.78478557 26.22929213 8.875 23.375 C4.62232685 19.88202768 0.77402649 16.32207948 -1 11 C-1.09267588 9.29367352 -1.12998202 7.58383413 -1.125 5.875 C-1.12757812 4.98554688 -1.13015625 4.09609375 -1.1328125 3.1796875 C-1 1 -1 1 0 0 Z " fill="#1256C7" transform="translate(58,176)"/>
<path d="M0 0 C3.89844864 3.10939729 3.89844864 3.10939729 5.0625 5.4375 C1.51482716 4.1491346 -1.27726876 2.604854 -4.3125 0.375 C-8.31478993 -2.38034533 -11.11075288 -3.35710651 -15.9375 -3.5625 C-15.9375 -2.2425 -15.9375 -0.9225 -15.9375 0.4375 C-23.6875 0.5625 -23.6875 0.5625 -25.9375 -0.5625 C-31.54453213 -0.77627721 -31.54453213 -0.77627721 -36.9375 0.4375 C-38.66545352 0.50552967 -40.39585365 0.52245645 -42.125 0.5 C-43.47658203 0.48646484 -43.47658203 0.48646484 -44.85546875 0.47265625 C-45.54253906 0.46105469 -46.22960938 0.44945313 -46.9375 0.4375 C-46.9375 -0.2225 -46.9375 -0.8825 -46.9375 -1.5625 C-12.20479155 -9.26946193 -12.20479155 -9.26946193 0 0 Z " fill="#626E74" transform="translate(78.9375,88.5625)"/>
<path d="M0 0 C0.8353125 0.8971875 0.8353125 0.8971875 1.6875 1.8125 C4.61003107 4.57705642 7.26054527 5.56174818 11 7 C8.125 13.875 8.125 13.875 7 15 C-0.01030928 15.70103093 -0.01030928 15.70103093 -4 12.875 C-6 10 -6 10 -6.5625 6.9375 C-5.8491857 3.21241422 -4.16703538 0 0 0 Z " fill="#89A0A5" transform="translate(79,166)"/>
<path d="M0 0 C7.73472045 2.17539013 13.11787458 8.56829527 17.28515625 15.10546875 C18.17138518 17.45421756 17.82111971 18.67091201 17 21 C16.34 20.67 15.68 20.34 15 20 C11.62177584 19.85624578 9.22609045 19.92463652 6 21 C6.03480469 20.11248047 6.03480469 20.11248047 6.0703125 19.20703125 C6.36277897 12.78643527 6.36277897 12.78643527 4 7 C0.94727535 6.10169161 0.94727535 6.10169161 -2 6 C-1.34 5.67 -0.68 5.34 0 5 C0 3.35 0 1.7 0 0 Z " fill="#E5EBEC" transform="translate(159,48)"/>
<path d="M0 0 C0.33 0.99 0.66 1.98 1 3 C1.78375 2.79375 2.5675 2.5875 3.375 2.375 C4.674375 2.189375 4.674375 2.189375 6 2 C6.66 2.66 7.32 3.32 8 4 C7.625 6.625 7.625 6.625 7 9 C6.34 9 5.68 9 5 9 C5 10.32 5 11.64 5 13 C3.02 13 1.04 13 -1 13 C-1 13.66 -1 14.32 -1 15 C-0.01 15.33 0.98 15.66 2 16 C2 16.99 2 17.98 2 19 C0.68 19 -0.64 19 -2 19 C-2.66 17.02 -3.32 15.04 -4 13 C-4.99 13 -5.98 13 -7 13 C-6.30058404 9.85262818 -5.23921302 6.97411124 -4 4 C-2.68 4 -1.36 4 0 4 C0 2.68 0 1.36 0 0 Z " fill="#9EA6A9" transform="translate(152,44)"/>
<path d="M0 0 C1.32 0.33 2.64 0.66 4 1 C4.66 3.31 5.32 5.62 6 8 C8.97 8.66 11.94 9.32 15 10 C15 10.66 15 11.32 15 12 C-3.04100228 12.55353075 -3.04100228 12.55353075 -10 9 C-9.67 7.68 -9.34 6.36 -9 5 C-6.69 5 -4.38 5 -2 5 C-1.34 3.35 -0.68 1.7 0 0 Z " fill="#667C88" transform="translate(127,85)"/>
<path d="M0 0 C0.99 0.33 1.98 0.66 3 1 C3.32105383 7.01678658 3.57288336 11.83916848 0 17 C-0.99 17.33 -1.98 17.66 -3 18 C-7.12989477 13.73688282 -7.61271765 10.71241466 -8 5 C-7.05125 4.54625 -6.1025 4.0925 -5.125 3.625 C-1.99686321 2.19761746 -1.99686321 2.19761746 0 0 Z " fill="#889EA8" transform="translate(176,75)"/>
<path d="M0 0 C5.38096904 0.43047752 8.85493157 1.46152695 13 5 C13 6.32 13 7.64 13 9 C12.34 9.433125 11.68 9.86625 11 10.3125 C10.34 10.869375 9.68 11.42625 9 12 C8.66619186 15.62563814 8.66619186 15.62563814 9 19 C8.34 19 7.68 19 7 19 C6.66226563 18.31292969 6.32453125 17.62585938 5.9765625 16.91796875 C5.53054687 16.01691406 5.08453125 15.11585938 4.625 14.1875 C4.18414062 13.29417969 3.74328125 12.40085938 3.2890625 11.48046875 C1.98133095 8.85443619 1.98133095 8.85443619 0 6 C-0.125 2.8125 -0.125 2.8125 0 0 Z " fill="#9AB7BF" transform="translate(178,116)"/>
<path d="M0 0 C0.61875 0.144375 1.2375 0.28875 1.875 0.4375 C6.22537017 1.22056663 10.60021907 1.59846659 15 2 C15 2.99 15 3.98 15 5 C14.67 4.34 14.34 3.68 14 3 C14 3.99 14 4.98 14 6 C14 6.66 14 7.32 14 8 C19.28 8.33 24.56 8.66 30 9 C29.67 9.66 29.34 10.32 29 11 C24.93609165 11.00626939 20.87572304 10.94663809 16.8125 10.875 C15.66201172 10.87757812 14.51152344 10.88015625 13.32617188 10.8828125 C5.01294464 10.69004201 5.01294464 10.69004201 2.0769043 8.68994141 C0.6875 7.09375 0.6875 7.09375 -1 4 C-0.8125 1.625 -0.8125 1.625 0 0 Z " fill="#A4B8BF" transform="translate(30,93)"/>
<path d="M0 0 C4.09141829 0.54552244 6.40543247 2.01626094 9.8125 4.375 C10.515625 6.515625 10.515625 6.515625 10.8125 8.375 C9.90757813 8.52195313 9.90757813 8.52195313 8.984375 8.671875 C4.00680884 9.60316157 1.16700549 10.34959341 -2.1875 14.375 C-2.8475 14.375 -3.5075 14.375 -4.1875 14.375 C-4.24139087 12.41696493 -4.28024217 10.45851091 -4.3125 8.5 C-4.33570312 7.40945312 -4.35890625 6.31890625 -4.3828125 5.1953125 C-4.14223679 1.7213993 -3.50287246 0.60049242 0 0 Z " fill="#E5E9EA" transform="translate(72.1875,150.625)"/>
<path d="M0 0 C3.21861101 1.24251723 6.40899518 2.52846784 9.58203125 3.8828125 C9.58203125 4.2128125 9.58203125 4.5428125 9.58203125 4.8828125 C8.95554687 4.93179688 8.3290625 4.98078125 7.68359375 5.03125 C6.86632812 5.10601562 6.0490625 5.18078125 5.20703125 5.2578125 C4.39492187 5.32742187 3.5828125 5.39703125 2.74609375 5.46875 C0.37868934 5.71173838 0.37868934 5.71173838 -1.41796875 7.8828125 C-6.37598221 7.65744825 -9.5879953 5.9832672 -13.41796875 2.8828125 C-13.41796875 1.8928125 -13.41796875 0.9028125 -13.41796875 -0.1171875 C-8.92543667 -2.36345354 -4.57834078 -1.49646339 0 0 Z " fill="#F6F7F7" transform="translate(92.41796875,165.1171875)"/>
<path d="M0 0 C-0.99 1.485 -0.99 1.485 -2 3 C-3.32 3 -4.64 3 -6 3 C-6 3.99 -6 4.98 -6 6 C-6.99 6 -7.98 6 -9 6 C-9 4.68 -9 3.36 -9 2 C-9.79664063 2.13277344 -10.59328125 2.26554687 -11.4140625 2.40234375 C-12.47367188 2.57894531 -13.53328125 2.75554688 -14.625 2.9375 C-16.19121094 3.19853516 -16.19121094 3.19853516 -17.7890625 3.46484375 C-20.859375 3.9765625 -23.9296875 4.48828125 -27 5 C-26.70703125 3.109375 -26.70703125 3.109375 -26 1 C-18.08661358 -3.18065698 -8.25298594 -3.66799375 0 0 Z " fill="#191F29" transform="translate(153,40)"/>
<path d="M0 0 C-0.61875 0.2475 -1.2375 0.495 -1.875 0.75 C-4.51939985 2.30552932 -5.07669938 3.07621471 -6 6 C-6.73778044 13.37780443 -4.82712654 18.49046361 -0.1875 24.25 C0.204375 24.8275 0.59625 25.405 1 26 C0.57421875 28.109375 0.57421875 28.109375 0 30 C-5.57041719 24.11663802 -11.0089768 18.25493122 -11.5 9.8125 C-10.94360949 5.57002238 -10.03514403 3.94587509 -7 1 C-4.53721199 -0.231394 -2.7204945 -0.07159196 0 0 Z " fill="#DCDEE1" transform="translate(103,40)"/>
<path d="M0 0 C3.875 1.875 3.875 1.875 5 3 C5.63004492 8.75521805 5.08977821 12.97911041 2 18 C-2.75 17.25 -2.75 17.25 -5 15 C-4.58427734 14.00419922 -4.58427734 14.00419922 -4.16015625 12.98828125 C-3.79792969 12.10527344 -3.43570313 11.22226563 -3.0625 10.3125 C-2.52302734 9.00732422 -2.52302734 9.00732422 -1.97265625 7.67578125 C-1.0429688 5.11820735 -0.45837375 2.6778677 0 0 Z " fill="#94ABB2" transform="translate(197,132)"/>
<path d="M0 0 C0.33 0.66 0.66 1.32 1 2 C-2.465 3.485 -2.465 3.485 -6 5 C-6 6.32 -6 7.64 -6 9 C-5.01 9.66 -4.02 10.32 -3 11 C-3.33 11.66 -3.66 12.32 -4 13 C-4.66 13 -5.32 13 -6 13 C-5.34 15.64 -4.68 18.28 -4 21 C-5.32 21 -6.64 21 -8 21 C-10.44797086 15.39006679 -12.28364184 10.1639028 -11 4 C-7.70034726 0.02100699 -5.03973765 -0.4688128 0 0 Z " fill="#151B27" transform="translate(174,67)"/>
<path d="M0 0 C0.680625 0.74830078 0.680625 0.74830078 1.375 1.51171875 C3.46965783 3.43014335 4.76223977 3.41948836 7.5625 3.5625 C11.79166667 3.79166667 11.79166667 3.79166667 14 6 C14.125 9.125 14.125 9.125 14 12 C13.01 12.495 13.01 12.495 12 13 C11.67 12.01 11.34 11.02 11 10 C8.67989287 8.89009845 8.67989287 8.89009845 5.875 8.0625 C1.17434158 6.4751851 -2.79551604 4.61612335 -7 2 C-7 1.34 -7 0.68 -7 0 C-4.26634878 -1.36682561 -2.89333621 -0.84683011 0 0 Z " fill="#ECEFF0" transform="translate(127,76)"/>
<path d="M0 0 C0.66 0.33 1.32 0.66 2 1 C1.875 2.8125 1.875 2.8125 1 5 C-2.61049684 7.4929621 -4.46497092 8.04314751 -8.875 7.6875 C-9.90625 7.460625 -10.9375 7.23375 -12 7 C-12 5.68 -12 4.36 -12 3 C-7.82270876 -0.67999467 -5.35626342 -1.58253237 0 0 Z " fill="#EFF1F2" transform="translate(161,110)"/>
<path d="M0 0 C4.84455959 1.40932642 4.84455959 1.40932642 7 3 C7.969218 5.79200866 7.95072091 7.99397579 8 11 C7.34 10.67 6.68 10.34 6 10 C5.67 10.99 5.34 11.98 5 13 C3.02 13.33 1.04 13.66 -1 14 C-1.33 12.35 -1.66 10.7 -2 9 C-0.68 8.01 0.64 7.02 2 6 C1.34 5.67 0.68 5.34 0 5 C0 3.35 0 1.7 0 0 Z " fill="#62717A" transform="translate(129,128)"/>
<path d="M0 0 C0.33 0 0.66 0 1 0 C1 14.85 1 29.7 1 45 C0.67 45 0.34 45 0 45 C-0.33 42.69 -0.66 40.38 -1 38 C-1.33 39.98 -1.66 41.96 -2 44 C-2.33 44 -2.66 44 -3 44 C-3.33 37.07 -3.66 30.14 -4 23 C-2 25 -2 25 -1 30 C-0.67 20.1 -0.34 10.2 0 0 Z " fill="#1D6AC3" transform="translate(219,116)"/>
<path d="M0 0 C-0.96039185 0.12060791 -0.96039185 0.12060791 -1.94018555 0.24365234 C-4.85687862 0.61388355 -7.77215055 0.99433918 -10.6875 1.375 C-12.19860352 1.56449219 -12.19860352 1.56449219 -13.74023438 1.7578125 C-14.71669922 1.88671875 -15.69316406 2.015625 -16.69921875 2.1484375 C-17.59471436 2.26364746 -18.49020996 2.37885742 -19.4128418 2.49755859 C-22.12912293 3.02507644 -24.44667267 3.95176947 -27 5 C-29.67578125 5.1953125 -29.67578125 5.1953125 -32.3125 5.125 C-33.63701172 5.09792969 -33.63701172 5.09792969 -34.98828125 5.0703125 C-35.65214844 5.04710938 -36.31601562 5.02390625 -37 5 C-37 4.34 -37 3.68 -37 3 C-5.86348502 -3.90899001 -5.86348502 -3.90899001 0 0 Z " fill="#DBDFE3" transform="translate(69,84)"/>
<path d="M0 0 C3.0991054 2.06607026 4.75879961 3.30654888 6 6.875 C6 10.64834059 4.91088625 12.78971111 3 16 C1.35 15.67 -0.3 15.34 -2 15 C-1.67 13.68 -1.34 12.36 -1 11 C0.32 10.67 1.64 10.34 3 10 C3 8.68 3 7.36 3 6 C1.35 6 -0.3 6 -2 6 C-2 4.35 -2 2.7 -2 1 C-1.34 0.67 -0.68 0.34 0 0 Z " fill="#778289" transform="translate(110,111)"/>
<path d="M0 0 C1.8847005 3.26681419 2.59314612 6.25694429 3 10 C2.67 10.66 2.34 11.32 2 12 C-0.31 12 -2.62 12 -5 12 C-5.25 4.375 -5.25 4.375 -3 1 C-2.01 0.67 -1.02 0.34 0 0 Z " fill="#2F3A46" transform="translate(90,101)"/>
<path d="M0 0 C0.70125 0.804375 1.4025 1.60875 2.125 2.4375 C5.26291593 5.23433811 6.88758763 5.71308751 11 6 C10.01 6.33 9.02 6.66 8 7 C8.33 8.32 8.66 9.64 9 11 C6.43646623 10.57274437 4.30655104 10.16285524 2 8.9375 C-0.44989787 7.78911037 -2.32638335 7.85146574 -5 8 C-4.75 6.125 -4.75 6.125 -4 4 C-1.9375 2.75 -1.9375 2.75 0 2 C0 1.34 0 0.68 0 0 Z " fill="#1A2027" transform="translate(159,102)"/>
<path d="M0 0 C0.42925781 0.65484375 0.85851562 1.3096875 1.30078125 1.984375 C1.86152344 2.64953125 2.42226562 3.3146875 3 4 C6.12586875 4.33397787 6.12586875 4.33397787 9 4 C9.33 5.32 9.66 6.64 10 8 C8.2984375 8.495 8.2984375 8.495 6.5625 9 C4.59506575 9.72187368 4.59506575 9.72187368 3 11 C2.030782 13.79200866 2.04927909 15.99397579 2 19 C1.67 19 1.34 19 1 19 C-0.00926479 14.84373632 -0.10239579 10.95634906 -0.0625 6.6875 C-0.05347656 5.43324219 -0.04445313 4.17898437 -0.03515625 2.88671875 C-0.01775391 1.45779297 -0.01775391 1.45779297 0 0 Z " fill="#E5EDEF" transform="translate(107,123)"/>
<path d="M0 0 C3.54887104 1.3174317 6.64151254 2.87083653 9.8125 4.9375 C10.60269531 5.44152344 11.39289063 5.94554688 12.20703125 6.46484375 C13.09455078 7.22474609 13.09455078 7.22474609 14 8 C14 8.99 14 9.98 14 11 C10.44745737 10.43159318 7.80862246 8.74122801 4.75 6.921875 C2.55330313 5.76468647 0.45514984 5.29759392 -2 5 C-2.33 6.32 -2.66 7.64 -3 9 C-3 7.35 -3 5.7 -3 4 C-2.01 3.67 -1.02 3.34 0 3 C0 2.01 0 1.02 0 0 Z " fill="#202630" transform="translate(180,111)"/>
<path d="M0 0 C0 0.33 0 0.66 0 1 C-2.54046458 1.50688605 -5.08208876 2.00566874 -7.625 2.5 C-8.33785156 2.64308594 -9.05070312 2.78617187 -9.78515625 2.93359375 C-13.92144935 3.73049426 -17.76433679 4.16034056 -22 4 C-22.33 4.66 -22.66 5.32 -23 6 C-23 5.01 -23 4.02 -23 3 C-23.66 2.67 -24.32 2.34 -25 2 C-9.04255319 -3.14893617 -9.04255319 -3.14893617 0 0 Z " fill="#151C28" transform="translate(54,83)"/>
<path d="M0 0 C1.95979427 0.28168297 3.91782378 0.57566717 5.875 0.875 C7.51082031 1.11863281 7.51082031 1.11863281 9.1796875 1.3671875 C12 2 12 2 14 4 C13.21625 4.556875 12.4325 5.11375 11.625 5.6875 C8.91295142 8.07668565 8.03866457 9.60073413 7 13 C6.34 13 5.68 13 5 13 C5.33 10.69 5.66 8.38 6 6 C5.01 5.38125 4.02 4.7625 3 4.125 C2.01 3.42375 1.02 2.7225 0 2 C0 1.34 0 0.68 0 0 Z " fill="#23262B" transform="translate(12,98)"/>
<path d="M0 0 C1.22589844 0.01353516 1.22589844 0.01353516 2.4765625 0.02734375 C3.41628906 0.04474609 3.41628906 0.04474609 4.375 0.0625 C4.375 0.3925 4.375 0.7225 4.375 1.0625 C1.735 1.0625 -0.905 1.0625 -3.625 1.0625 C-3.295 2.3825 -2.965 3.7025 -2.625 5.0625 C-5.595 7.5375 -5.595 7.5375 -8.625 10.0625 C-8.955 9.4025 -9.285 8.7425 -9.625 8.0625 C-11.36456658 9.80206658 -10.99690386 12.2561622 -11.1875 14.625 C-11.27128906 15.63691406 -11.35507813 16.64882813 -11.44140625 17.69140625 C-11.50199219 18.47386719 -11.56257813 19.25632812 -11.625 20.0625 C-11.955 20.0625 -12.285 20.0625 -12.625 20.0625 C-13.54025424 9.7404661 -13.54025424 9.7404661 -11.359375 5.7421875 C-7.79506606 1.60689703 -5.53135246 -0.07901932 0 0 Z " fill="#272D36" transform="translate(100.625,35.9375)"/>
<path d="M0 0 C5.02254631 -0.2954439 7.89542386 0.01485372 12 3 C11.67 3.66 11.34 4.32 11 5 C5.39 5 -0.22 5 -6 5 C-6 4.67 -6 4.34 -6 4 C-4.02 4 -2.04 4 0 4 C0 2.68 0 1.36 0 0 Z " fill="#37474F" transform="translate(63,85)"/>
<path d="M0 0 C3.0390625 -0.29296875 3.0390625 -0.29296875 6.625 -0.1875 C7.81351563 -0.16042969 9.00203125 -0.13335937 10.2265625 -0.10546875 C11.14179688 -0.07066406 12.05703125 -0.03585938 13 0 C13 0.99 13 1.98 13 3 C11.35 3.33 9.7 3.66 8 4 C8 4.99 8 5.98 8 7 C7.01 7 6.02 7 5 7 C5 5.68 5 4.36 5 3 C2.69 3 0.38 3 -2 3 C-1.34 2.01 -0.68 1.02 0 0 Z " fill="#0C121C" transform="translate(139,39)"/>
<path d="M0 0 C0.99 0.66 1.98 1.32 3 2 C3 2.66 3 3.32 3 4 C2.12988281 3.80470703 2.12988281 3.80470703 1.2421875 3.60546875 C-3.43822163 2.64774616 -3.43822163 2.64774616 -7.79296875 4.08203125 C-8.29441406 4.54996094 -8.79585937 5.01789062 -9.3125 5.5 C-10.199375 6.325 -11.08625 7.15 -12 8 C-14.375 7.8125 -14.375 7.8125 -16 7 C-16 6.34 -16 5.68 -16 5 C-10.96478076 0.58079163 -6.57549259 -0.78014319 0 0 Z " fill="#DCE0E2" transform="translate(183,41)"/>
<path d="M0 0 C2.91517292 1.07401108 4.77810176 1.77810176 7 4 C7 5.32 7 6.64 7 8 C7.66 8.33 8.32 8.66 9 9 C9 11.31 9 13.62 9 16 C8.34 16 7.68 16 7 16 C6.66226563 15.31292969 6.32453125 14.62585938 5.9765625 13.91796875 C5.53054687 13.01691406 5.08453125 12.11585938 4.625 11.1875 C4.18414062 10.29417969 3.74328125 9.40085938 3.2890625 8.48046875 C1.98133095 5.85443619 1.98133095 5.85443619 0 3 C0 2.01 0 1.02 0 0 Z " fill="#6F8B95" transform="translate(178,119)"/>
<path d="M0 0 C2.8125 -0.3125 2.8125 -0.3125 6 0 C7.9375 2.25 7.9375 2.25 9 5 C8.67 6.32 8.34 7.64 8 9 C5.36 8.01 2.72 7.02 0 6 C0 4 0 2 0 0 Z " fill="#DCE4E6" transform="translate(168,60)"/>
<path d="M0 0 C1.98 0.99 1.98 0.99 4 2 C4 2.66 4 3.32 4 4 C4.66 4 5.32 4 6 4 C6 8.29 6 12.58 6 17 C5.67 17 5.34 17 5 17 C4.71125 16.05125 4.4225 15.1025 4.125 14.125 C3.23174891 10.94788422 3.23174891 10.94788422 1 9 C0.5859375 6.8359375 0.5859375 6.8359375 0.375 4.375 C0.30023438 3.55773437 0.22546875 2.74046875 0.1484375 1.8984375 C0.09945312 1.27195313 0.05046875 0.64546875 0 0 Z " fill="#5B6B76" transform="translate(136,132)"/>
<path d="M0 0 C2.475 0.99 2.475 0.99 5 2 C4.649375 2.66 4.29875 3.32 3.9375 4 C2.67146591 8.0513091 3.29385518 10.83374555 4 15 C0.125 13.25 0.125 13.25 -1 11 C-1.09534254 9.3146804 -1.12985758 7.62550734 -1.125 5.9375 C-1.12757812 5.03902344 -1.13015625 4.14054687 -1.1328125 3.21484375 C-1 1 -1 1 0 0 Z " fill="#ABC0C6" transform="translate(107,89)"/>
<path d="M0 0 C1.65 0.33 3.3 0.66 5 1 C5 2.32 5 3.64 5 5 C4.38125 5.061875 3.7625 5.12375 3.125 5.1875 C2.42375 5.455625 1.7225 5.72375 1 6 C0.28272222 7.64551962 -0.38325228 9.31422289 -1 11 C-1.99 11.66 -2.98 12.32 -4 13 C-5.25541557 9.23375329 -4.37061958 7.62811066 -3 4 C-2.01 4 -1.02 4 0 4 C0 2.68 0 1.36 0 0 Z " fill="#D9E2E3" transform="translate(147,43)"/>
<path d="M0 0 C0.66 0 1.32 0 2 0 C2 1.65 2 3.3 2 5 C1.34 5 0.68 5 0 5 C0 5.66 0 6.32 0 7 C-4.38461538 10 -4.38461538 10 -7 10 C-7.33 8.35 -7.66 6.7 -8 5 C-7.05125 4.54625 -6.1025 4.0925 -5.125 3.625 C-1.99686321 2.19761746 -1.99686321 2.19761746 0 0 Z " fill="#E4E9EA" transform="translate(176,75)"/>
<path d="M0 0 C1.9375 0.375 1.9375 0.375 4 1 C5.50662097 4.01324195 5.17770373 6.68286377 5 10 C4.34 10.66 3.68 11.32 3 12 C0.89366282 10.29171079 0.06198392 9.47851584 -0.29296875 6.73828125 C-0.25816406 5.93777344 -0.22335938 5.13726562 -0.1875 4.3125 C-0.16042969 3.50425781 -0.13335937 2.69601563 -0.10546875 1.86328125 C-0.07066406 1.24839844 -0.03585938 0.63351563 0 0 Z " fill="#1C2128" transform="translate(138,56)"/>
<path d="M0 0 C5.70820183 2.30523536 12.39089364 6.12546052 15.5625 11.5625 C15.789375 12.14 16.01625 12.7175 16.25 13.3125 C11.9567698 12.83547442 10.20508179 10.26758179 7.25 7.3125 C3.42874126 4.6353307 -0.55900297 2.35666113 -4.75 0.3125 C-2.75 -0.6875 -2.75 -0.6875 0 0 Z " fill="#2C3036" transform="translate(70.75,81.6875)"/>
<path d="M0 0 C3.46470949 0.72873963 6.76691126 1.53868671 10 3 C11.625 6.1875 11.625 6.1875 12 9 C7.97032739 7.78172689 4.39841445 6.52453645 1 4 C0.36328125 1.8984375 0.36328125 1.8984375 0 0 Z " fill="#486477" transform="translate(77,189)"/>
<path d="M0 0 C0.66 0 1.32 0 2 0 C2 0.66 2 1.32 2 2 C5.63 2 9.26 2 13 2 C13.33 3.65 13.66 5.3 14 7 C13.01 6.67 12.02 6.34 11 6 C9.37432921 5.85284801 7.74413143 5.75278133 6.11328125 5.68359375 C5.17548828 5.64169922 4.23769531 5.59980469 3.27148438 5.55664062 C2.29501953 5.51732422 1.31855469 5.47800781 0.3125 5.4375 C-0.67556641 5.39431641 -1.66363281 5.35113281 -2.68164062 5.30664062 C-5.12095546 5.20058346 -7.56037113 5.09852286 -10 5 C-10 4.67 -10 4.34 -10 4 C-5.545 3.505 -5.545 3.505 -1 3 C-0.67 2.01 -0.34 1.02 0 0 Z " fill="#1E272F" transform="translate(55,104)"/>
<path d="M0 0 C0.33 0 0.66 0 1 0 C1.28875 1.093125 1.5775 2.18625 1.875 3.3125 C2.81893204 7.04013845 2.81893204 7.04013845 5 10 C2 11 2 11 -1.625 9.75 C-5 8 -5 8 -6 5 C-5.38125 4.731875 -4.7625 4.46375 -4.125 4.1875 C-1.7004767 3.04443152 -1.7004767 3.04443152 0 0 Z " fill="#CDDCDF" transform="translate(136,58)"/>
<path d="M0 0 C0.99 0 1.98 0 3 0 C5.32490278 3.63266059 5.39259107 6.76001646 5 11 C4.01 11.66 3.02 12.32 2 13 C0.24252386 8.49646738 -0.19294408 4.82360189 0 0 Z " fill="#22282F" transform="translate(161,56)"/>
<path d="M0 0 C4.38000076 0.50057152 6.84169815 1.93193534 10 5 C10 5.99 10 6.98 10 8 C8.68 8.33 7.36 8.66 6 9 C4.99712471 7.68969568 3.99777175 6.37669473 3 5.0625 C2.443125 4.33160156 1.88625 3.60070312 1.3125 2.84765625 C0 1 0 1 0 0 Z " fill="#252D39" transform="translate(68,184)"/>
<path d="M0 0 C2.33944736 0.28730055 4.6739143 0.61936779 7 1 C6.01 1.66 5.02 2.32 4 3 C3.67 3.680625 3.34 4.36125 3 5.0625 C2 7 2 7 -1 8 C-1 8.66 -1 9.32 -1 10 C-1.99 9.67 -2.98 9.34 -4 9 C-3.52418802 7.68628013 -3.04424851 6.37405454 -2.5625 5.0625 C-2.29566406 4.33160156 -2.02882812 3.60070312 -1.75390625 2.84765625 C-1 1 -1 1 0 0 Z " fill="#2B3443" transform="translate(182,144)"/>
<path d="M0 0 C2 1 2 1 3.3125 3.625 C4.23809683 8.16883899 3.10619626 9.94962258 1 14 C-1.18841354 10.71737969 -1.24854665 9.68209102 -1.1875 5.875 C-1.18105469 4.98554688 -1.17460938 4.09609375 -1.16796875 3.1796875 C-1 1 -1 1 0 0 Z " fill="#3D86DA" transform="translate(58,176)"/>
<path d="M0 0 C1.67542976 0.28604898 3.34385343 0.61781233 5 1 C5 2.65 5 4.3 5 6 C3.34385343 6.38218767 1.67542976 6.71395102 0 7 C-1 6 -1 6 -1.125 3.5 C-1 1 -1 1 0 0 Z " fill="#141A21" transform="translate(113,154)"/>
<path d="M0 0 C1.31611677 0.95336021 2.62778961 1.91285774 3.9375 2.875 C4.66839844 3.40867188 5.39929688 3.94234375 6.15234375 4.4921875 C8 6 8 6 9 8 C2.60924751 8.36174071 2.60924751 8.36174071 0 6.8125 C-1 5 -1 5 -0.6875 2.3125 C-0.460625 1.549375 -0.23375 0.78625 0 0 Z " fill="#326AC5" transform="translate(69,194)"/>
<path d="M0 0 C3.63 0 7.26 0 11 0 C11 0.99 11 1.98 11 3 C7.37 3.33 3.74 3.66 0 4 C0 2.68 0 1.36 0 0 Z " fill="#232C39" transform="translate(122,173)"/>
<path d="M0 0 C1.67542976 0.28604898 3.34385343 0.61781233 5 1 C4.67 2.65 4.34 4.3 4 6 C1.69 6 -0.62 6 -3 6 C-1.125 1.125 -1.125 1.125 0 0 Z " fill="#768892" transform="translate(78,141)"/>
<path d="M0 0 C2.1464753 0.11344376 4.29220592 0.24106345 6.4375 0.375 C8.22994141 0.47941406 8.22994141 0.47941406 10.05859375 0.5859375 C11.02925781 0.72257812 11.99992188 0.85921875 13 1 C13.33 1.66 13.66 2.32 14 3 C11.41679994 3.86106669 9.66678376 4.21653619 7 4.3125 C6.319375 4.34988281 5.63875 4.38726562 4.9375 4.42578125 C3 4 3 4 1.25 1.98046875 C0.8375 1.32691406 0.425 0.67335938 0 0 Z " fill="#C1D3D4" transform="translate(136,105)"/>
<path d="M0 0 C-2.42581871 2.42581871 -4.07433869 2.96355664 -7.48046875 3.09765625 C-8.37378906 3.08605469 -9.26710938 3.07445313 -10.1875 3.0625 C-11.53908203 3.04896484 -11.53908203 3.04896484 -12.91796875 3.03515625 C-13.60503906 3.02355469 -14.29210938 3.01195313 -15 3 C-15 2.34 -15 1.68 -15 1 C-13.25215171 0.63536268 -11.50159498 0.2836922 -9.75 -0.0625 C-8.28820313 -0.35833984 -8.28820313 -0.35833984 -6.796875 -0.66015625 C-4.131881 -0.98397535 -2.51128277 -0.85503199 0 0 Z " fill="#C0C4C7" transform="translate(47,86)"/>
<path d="M0 0 C0.33 0.66 0.66 1.32 1 2 C3.02463255 2.65213292 3.02463255 2.65213292 5 3 C3.3603125 3.6496875 3.3603125 3.6496875 1.6875 4.3125 C-0.55133485 5.25918167 -1.89144835 5.89144835 -3.625 7.625 C-5.5411299 9.5411299 -7.3741111 9.64515015 -10 10 C-6.66666667 6.66666667 -3.33333333 3.33333333 0 0 Z " fill="#191E25" transform="translate(121,72)"/>
<path d="M0 0 C0.79921875 0.01804688 1.5984375 0.03609375 2.421875 0.0546875 C3.02515625 0.07789063 3.6284375 0.10109375 4.25 0.125 C1.01080489 2.99044183 -1.54161859 3.47036289 -5.75 4.125 C-6.08 4.785 -6.41 5.445 -6.75 6.125 C-7.41 4.805 -8.07 3.485 -8.75 2.125 C-5.68753253 0.34090198 -3.52920727 -0.10380021 0 0 Z " fill="#2A303E" transform="translate(160.75,165.875)"/>
<path d="M0 0 C1.67542976 0.28604898 3.34385343 0.61781233 5 1 C4.67 2.65 4.34 4.3 4 6 C2.35 6 0.7 6 -1 6 C-1.042721 4.33388095 -1.04063832 2.66617115 -1 1 C-0.67 0.67 -0.34 0.34 0 0 Z " fill="#10161E" transform="translate(143,144)"/>
<path d="M0 0 C1.2065625 0.0309375 1.2065625 0.0309375 2.4375 0.0625 C2.4375 1.7125 2.4375 3.3625 2.4375 5.0625 C0.7875 5.3925 -0.8625 5.7225 -2.5625 6.0625 C-2.94468767 4.40635343 -3.27645102 2.73792976 -3.5625 1.0625 C-2.5625 0.0625 -2.5625 0.0625 0 0 Z " fill="#191C21" transform="translate(117.5625,142.9375)"/>
<path d="M0 0 C0.94875 0.165 1.8975 0.33 2.875 0.5 C5.80168901 1.0526635 5.80168901 1.0526635 8 1 C8.5625 2.9375 8.5625 2.9375 9 5 C8.67 5.33 8.34 5.66 8 6 C5.66055264 5.71269945 3.3260857 5.38063221 1 5 C0.67 3.35 0.34 1.7 0 0 Z " fill="#BFD0D3" transform="translate(108,126)"/>
<path d="M0 0 C5.445 1.485 5.445 1.485 11 3 C11 3.33 11 3.66 11 4 C10.07767578 4.07347656 10.07767578 4.07347656 9.13671875 4.1484375 C8.32847656 4.22320312 7.52023438 4.29796875 6.6875 4.375 C5.88699219 4.44460937 5.08648437 4.51421875 4.26171875 4.5859375 C1.72775559 4.89564426 1.72775559 4.89564426 -1 7 C-1 6.34 -1 5.68 -1 5 C-1.66 4.67 -2.32 4.34 -3 4 C-2.34 4 -1.68 4 -1 4 C-0.67 2.68 -0.34 1.36 0 0 Z " fill="#C9DADA" transform="translate(125,81)"/>
<path d="M0 0 C0.33 0 0.66 0 1 0 C1.08086147 1.79093191 1.13912702 3.58289628 1.1875 5.375 C1.22230469 6.37273438 1.25710937 7.37046875 1.29296875 8.3984375 C1.19628906 9.25695313 1.09960938 10.11546875 1 11 C0.01 11.66 -0.98 12.32 -2 13 C-2.05391993 11.20866022 -2.09275571 9.41686101 -2.125 7.625 C-2.14820312 6.62726562 -2.17140625 5.62953125 -2.1953125 4.6015625 C-2 2 -2 2 0 0 Z " fill="#0B111B" transform="translate(91,43)"/>
<path d="M0 0 C1.65 0.33 3.3 0.66 5 1 C5 2.65 5 4.3 5 6 C3.35 6 1.7 6 0 6 C-1.125 2.25 -1.125 2.25 0 0 Z " fill="#13181E" transform="translate(127,148)"/>
<path d="M0 0 C1.65 0.33 3.3 0.66 5 1 C4.67 2.65 4.34 4.3 4 6 C2.35 5.67 0.7 5.34 -1 5 C-0.67 3.35 -0.34 1.7 0 0 Z " fill="#11161D" transform="translate(128,136)"/>
<path d="M0 0 C1.65 0.33 3.3 0.66 5 1 C4.67 2.65 4.34 4.3 4 6 C2.35 5.67 0.7 5.34 -1 5 C-0.67 3.35 -0.34 1.7 0 0 Z " fill="#181D22" transform="translate(111,132)"/>
<path d="M0 0 C1.32 0.66 2.64 1.32 4 2 C0.21243523 5.61139896 0.21243523 5.61139896 -2 7 C-4.875 6.8125 -4.875 6.8125 -7 6 C-3.25 3 -3.25 3 -1 3 C-0.67 2.01 -0.34 1.02 0 0 Z " fill="#D2DEDD" transform="translate(163,112)"/>
<path d="M0 0 C1.485 0.99 1.485 0.99 3 2 C3.29296875 4.3828125 3.29296875 4.3828125 3.1875 7.125 C3.16042969 8.03507812 3.13335937 8.94515625 3.10546875 9.8828125 C3.07066406 10.58148438 3.03585938 11.28015625 3 12 C2.01 12.33 1.02 12.66 0 13 C0 8.71 0 4.42 0 0 Z " fill="#060E1E" transform="translate(99,102)"/>
<path d="M0 0 C0.33 0 0.66 0 1 0 C1.05395478 1.62463842 1.09277195 3.24978541 1.125 4.875 C1.14820313 5.77992187 1.17140625 6.68484375 1.1953125 7.6171875 C1 10 1 10 -1 12 C-1 11.34 -1 10.68 -1 10 C-1.99 10 -2.98 10 -4 10 C-4 8.68 -4 7.36 -4 6 C-3.34 6 -2.68 6 -2 6 C-2 5.34 -2 4.68 -2 4 C-1.34 4 -0.68 4 0 4 C0 2.68 0 1.36 0 0 Z " fill="#6B838E" transform="translate(178,76)"/>
<path d="M0 0 C0.66 1.32 1.32 2.64 2 4 C3.65 4 5.3 4 7 4 C7 4.66 7 5.32 7 6 C3.5647952 8.29013653 2.014669 8.17842973 -2 8 C-2 6.68 -2 5.36 -2 4 C-1.34 4 -0.68 4 0 4 C0 2.68 0 1.36 0 0 Z " fill="#8AA2AD" transform="translate(111,156)"/>
<path d="M0 0 C1.32 0 2.64 0 4 0 C5.80411967 2.75924185 6.0127245 3.88972103 5.625 7.25 C5.41875 8.1575 5.2125 9.065 5 10 C2.08772731 6.71195019 0.50298788 4.40114397 0 0 Z " fill="#202330" transform="translate(73,123)"/>
<path d="M0 0 C3.34252724 -0.07427838 5.8035914 -0.06546953 9 1 C10.66621616 1.03874921 12.33394172 1.0450286 14 1 C14 1.66 14 2.32 14 3 C13.01 3 12.02 3 11 3 C11 3.66 11 4.32 11 5 C9.02 5.33 7.04 5.66 5 6 C5 4.35 5 2.7 5 1 C3.35 1 1.7 1 0 1 C0 0.67 0 0.34 0 0 Z " fill="#CADDDF" transform="translate(38,96)"/>
<path d="M0 0 C0.99 0.33 1.98 0.66 3 1 C2.37240135 3.92879371 1.41377341 6.36095629 0 9 C-0.99 9 -1.98 9 -3 9 C-2.30058404 5.85262818 -1.23921302 2.97411124 0 0 Z " fill="#50595B" transform="translate(148,48)"/>
<path d="M0 0 C3.34097385 0.59660247 5.54300129 1.63075125 8 4 C8 5.32 8 6.64 8 8 C4.63820226 6.55922954 2.40843732 4.75249979 0 2 C0 1.34 0 0.68 0 0 Z " fill="#1D232E" transform="translate(75,192)"/>
<path d="M0 0 C0.66 0 1.32 0 2 0 C2 0.66 2 1.32 2 2 C3.98 1.67 5.96 1.34 8 1 C8 2.98 8 4.96 8 7 C4.21388773 6.45912682 2.44599233 4.88277668 0 2 C0 1.34 0 0.68 0 0 Z " fill="#114EBA" transform="translate(61,192)"/>
<path d="M0 0 C1.67542976 0.28604898 3.34385343 0.61781233 5 1 C5 2.32 5 3.64 5 5 C3.35 5 1.7 5 0 5 C-0.5625 3.0625 -0.5625 3.0625 -1 1 C-0.67 0.67 -0.34 0.34 0 0 Z " fill="#1F272F" transform="translate(116,100)"/>
<path d="M0 0 C0 0.33 0 0.66 0 1 C-1.65 1 -3.3 1 -5 1 C-5.33 2.32 -5.66 3.64 -6 5 C-6.99 4.67 -7.98 4.34 -9 4 C-9 3.34 -9 2.68 -9 2 C-10.98 2.33 -12.96 2.66 -15 3 C-9.97583178 -0.34944548 -5.90048743 -0.09834146 0 0 Z " fill="#656B71" transform="translate(144,42)"/>
<path d="M0 0 C1.21236328 0.02707031 1.21236328 0.02707031 2.44921875 0.0546875 C3.37154297 0.08949219 3.37154297 0.08949219 4.3125 0.125 C4.3125 0.455 4.3125 0.785 4.3125 1.125 C1.6725 1.125 -0.9675 1.125 -3.6875 1.125 C-4.0175 2.775 -4.3475 4.425 -4.6875 6.125 C-6.3375 6.455 -7.9875 6.785 -9.6875 7.125 C-7.82206758 1.67219755 -5.82891046 -0.16895393 0 0 Z " fill="#2C323A" transform="translate(179.6875,35.875)"/>
<path d="M0 0 C0.66 1.32 1.32 2.64 2 4 C-1.68964734 6.45976489 -3.27428479 7.12465307 -7.625 7.0625 C-8.85089844 7.04896484 -8.85089844 7.04896484 -10.1015625 7.03515625 C-11.04128906 7.01775391 -11.04128906 7.01775391 -12 7 C-12 6.67 -12 6.34 -12 6 C-10.72125 5.9175 -9.4425 5.835 -8.125 5.75 C-5.94173127 5.5371288 -5.94173127 5.5371288 -4 5 C-2.54780623 3.09831644 -2.54780623 3.09831644 -2 1 C-1.34 0.67 -0.68 0.34 0 0 Z " fill="#586F79" transform="translate(136,157)"/>
<path d="M0 0 C1.65 0 3.3 0 5 0 C3.02 2.97 1.04 5.94 -1 9 C-2.32 8.34 -3.64 7.68 -5 7 C-3 5 -3 5 0 3 C0 2.01 0 1.02 0 0 Z " fill="#1E2634" transform="translate(185,146)"/>
<path d="M0 0 C1.32 0.66 2.64 1.32 4 2 C3.67 3.32 3.34 4.64 3 6 C1.35 5.67 -0.3 5.34 -2 5 C-1.125 1.125 -1.125 1.125 0 0 Z " fill="#1C2025" transform="translate(110,121)"/>
<path d="M0 0 C0.33 1.32 0.66 2.64 1 4 C2.65 4 4.3 4 6 4 C6 5.32 6 6.64 6 8 C4.35 8.66 2.7 9.32 1 10 C0.67 6.7 0.34 3.4 0 0 Z " fill="#BEC9CB" transform="translate(107,113)"/>
<path d="M0 0 C-0.33 1.32 -0.66 2.64 -1 4 C-4.125 3.47916667 -7.25 2.95833333 -10.375 2.4375 C-11.24125 2.293125 -12.1075 2.14875 -13 2 C-13 1.67 -13 1.34 -13 1 C-8.61414671 0.29826347 -4.44209357 -0.10834375 0 0 Z " fill="#65777E" transform="translate(60,85)"/>
<path d="M0 0 C0.33 0 0.66 0 1 0 C1 2.97 1 5.94 1 9 C0.34 9 -0.32 9 -1 9 C-1.80967438 6.08517222 -2.21845993 4.53886783 -1.0625 1.6875 C-0.711875 1.130625 -0.36125 0.57375 0 0 Z M-7 5 C-5.35 5 -3.7 5 -2 5 C-2.33 5.66 -2.66 6.32 -3 7 C-4.32 7 -5.64 7 -7 7 C-7 6.34 -7 5.68 -7 5 Z " fill="#24282F" transform="translate(178,95)"/>
<path d="M0 0 C0 0.33 0 0.66 0 1 C-1.62414378 1.19477739 -3.24936423 1.38059458 -4.875 1.5625 C-5.77992187 1.66691406 -6.68484375 1.77132812 -7.6171875 1.87890625 C-10 2 -10 2 -12 1 C-13.32860925 0.64830932 -14.66158328 0.31229724 -16 0 C-10.27304317 -2.71276903 -5.87042768 -1.50821265 0 0 Z " fill="#343C49" transform="translate(54,83)"/>
<path d="M0 0 C1.32 0 2.64 0 4 0 C4 1.65 4 3.3 4 5 C2.68 5.33 1.36 5.66 0 6 C-0.38218767 4.34385343 -0.71395102 2.67542976 -1 1 C-0.67 0.67 -0.34 0.34 0 0 Z " fill="#5F6C7A" transform="translate(168,71)"/>
<path d="M0 0 C4.875 1.75 4.875 1.75 6 4 C5.6875 7.5625 5.6875 7.5625 5 11 C4.01 11.495 4.01 11.495 3 12 C3 9.03 3 6.06 3 3 C2.34 3 1.68 3 1 3 C0.67 2.01 0.34 1.02 0 0 Z " fill="#43515D" transform="translate(139,133)"/>
<path d="M0 0 C2.97 0.495 2.97 0.495 6 1 C5.5359375 2.1446875 5.5359375 2.1446875 5.0625 3.3125 C4.32106407 5.18789677 3.63771783 7.08684652 3 9 C2.34 9 1.68 9 1 9 C1.20625 7.88625 1.4125 6.7725 1.625 5.625 C1.74875 4.42875 1.8725 3.2325 2 2 C1.34 1.34 0.68 0.68 0 0 Z " fill="#3A3F46" transform="translate(16,102)"/>
<path d="M0 0 C2.75 0.25 2.75 0.25 5 1 C5 1.99 5 2.98 5 4 C2.03 4 -0.94 4 -4 4 C-2.3125 1.9375 -2.3125 1.9375 0 0 Z " fill="#24313C" transform="translate(69,86)"/>
<path d="M0 0 C0.66 0.33 1.32 0.66 2 1 C2.33 1.99 2.66 2.98 3 4 C3.66 4.66 4.32 5.32 5 6 C2 8 2 8 -0.1875 7.625 C-0.785625 7.41875 -1.38375 7.2125 -2 7 C-1.125 2.25 -1.125 2.25 0 0 Z " fill="#D4E2E3" transform="translate(110,67)"/>
<path d="M0 0 C1.32 0.99 2.64 1.98 4 3 C3.34 4.32 2.68 5.64 2 7 C-0.475 6.01 -0.475 6.01 -3 5 C-2.34 4.67 -1.68 4.34 -1 4 C-0.34786708 1.97536745 -0.34786708 1.97536745 0 0 Z " fill="#586E7A" transform="translate(83,143)"/>
<path d="M0 0 C1.875 0.25 1.875 0.25 4 1 C5.25 3.0625 5.25 3.0625 6 5 C4.68 5.33 3.36 5.66 2 6 C0 3 0 3 0 0 Z " fill="#C3D5DF" transform="translate(186,119)"/>
<path d="M0 0 C0.66 0 1.32 0 2 0 C2 4.29 2 8.58 2 13 C1.67 13 1.34 13 1 13 C0.63447197 11.58622218 0.28304505 10.16879424 -0.0625 8.75 C-0.25972656 7.96109375 -0.45695313 7.1721875 -0.66015625 6.359375 C-1.01497267 3.89605178 -0.76877544 2.34395868 0 0 Z " fill="#52626C" transform="translate(140,136)"/>
<path d="M0 0 C1.98 0 3.96 0 6 0 C6 1.32 6 2.64 6 4 C4.02 4 2.04 4 0 4 C0 2.68 0 1.36 0 0 Z " fill="#384857" transform="translate(85,108)"/>
<path d="M0 0 C1.32 0.66 2.64 1.32 4 2 C3.67 3.32 3.34 4.64 3 6 C1.68 5.67 0.36 5.34 -1 5 C-0.67 3.35 -0.34 1.7 0 0 Z " fill="#E1E3E6" transform="translate(48,89)"/>
<path d="M0 0 C1.32 0 2.64 0 4 0 C4.33 2.31 4.66 4.62 5 7 C3.35 6.67 1.7 6.34 0 6 C0 4 0 2 0 0 Z " fill="#9AA5A9" transform="translate(168,60)"/>
<path d="M0 0 C2.64 0 5.28 0 8 0 C7.67 0.99 7.34 1.98 7 3 C4.69 3.33 2.38 3.66 0 4 C-0.33 3.34 -0.66 2.68 -1 2 C-0.67 1.34 -0.34 0.68 0 0 Z " fill="#070D18" transform="translate(176,37)"/>
<path d="M0 0 C0.66 0 1.32 0 2 0 C2 0.66 2 1.32 2 2 C2.66 2 3.32 2 4 2 C4 3.32 4 4.64 4 6 C2.125 6.625 2.125 6.625 0 7 C-0.66 6.34 -1.32 5.68 -2 5 C-1.34 5 -0.68 5 0 5 C0 3.35 0 1.7 0 0 Z " fill="#0B0F16" transform="translate(26,95)"/>
<path d="M0 0 C3.03956213 1.51978106 4.72283352 2.51797133 6.4375 5.5 C6.623125 6.325 6.80875 7.15 7 8 C6.01 9.485 6.01 9.485 5 11 C4.54625 9.9275 4.0925 8.855 3.625 7.75 C2.49911463 5.11937683 1.32079794 2.53999604 0 0 Z " fill="#E5E8EA" transform="translate(140,68)"/>
<path d="M0 0 C-0.66 1.98 -1.32 3.96 -2 6 C-3.65 6 -5.3 6 -7 6 C-5.52522876 2.59668175 -4.14385429 0 0 0 Z " fill="#D0DEDC" transform="translate(118,61)"/>
<path d="M0 0 C0.33 0.66 0.66 1.32 1 2 C1.99 2.33 2.98 2.66 4 3 C3.34 3.66 2.68 4.32 2 5 C1.67 5.99 1.34 6.98 1 8 C-0.32 8 -1.64 8 -3 8 C-2.67 6.68 -2.34 5.36 -2 4 C-1.34 4 -0.68 4 0 4 C0 2.68 0 1.36 0 0 Z " fill="#656D6F" transform="translate(143,44)"/>
<path d="M0 0 C2.64 0 5.28 0 8 0 C7.67 0.99 7.34 1.98 7 3 C4.69 3 2.38 3 0 3 C0 2.01 0 1.02 0 0 Z " fill="#060B18" transform="translate(97,37)"/>
<path d="M0 0 C-1.98 0.99 -1.98 0.99 -4 2 C-3.67 2.66 -3.34 3.32 -3 4 C-6 6 -6 6 -8 7 C-8 5.02 -8 3.04 -8 1 C-2.25 -1.125 -2.25 -1.125 0 0 Z " fill="#C5C7CA" transform="translate(159,163)"/>
<path d="M0 0 C0.99 0.33 1.98 0.66 3 1 C1.9375 2.5 1.9375 2.5 0 4 C-3.6875 4.1875 -3.6875 4.1875 -7 4 C-7.33 3.34 -7.66 2.68 -8 2 C-6.865625 1.855625 -5.73125 1.71125 -4.5625 1.5625 C-1.19222799 1.38828522 -1.19222799 1.38828522 0 0 Z " fill="#CEDDDD" transform="translate(171,104)"/>
<path d="M0 0 C1.65 1.65 3.3 3.3 5 5 C3.68 6.32 2.36 7.64 1 9 C-0.4783226 6.04335481 -0.06032783 3.25770263 0 0 Z " fill="#2360C5" transform="translate(64,187)"/>
<path d="M0 0 C-0.99 1.485 -0.99 1.485 -2 3 C-4.97 2.505 -4.97 2.505 -8 2 C-8 1.34 -8 0.68 -8 0 C-4.71023192 -1.09658936 -3.28696233 -0.79953138 0 0 Z " fill="#1C2632" transform="translate(103,172)"/>
<path d="M0 0 C0.99 0.33 1.98 0.66 3 1 C2.64950425 4.24208567 2.43778819 5.61527704 -0.0625 7.8125 C-0.701875 8.204375 -1.34125 8.59625 -2 9 C-1.34 6.03 -0.68 3.06 0 0 Z " fill="#AEBBBC" transform="translate(197,132)"/>
<path d="M0 0 C1.98 0.495 1.98 0.495 4 1 C3.67 2.32 3.34 3.64 3 5 C1.68 4.67 0.36 4.34 -1 4 C-0.67 2.68 -0.34 1.36 0 0 Z " fill="#161B20" transform="translate(118,90)"/>
<path d="M0 0 C1.98 0.495 1.98 0.495 4 1 C3.67 2.32 3.34 3.64 3 5 C1.68 4.67 0.36 4.34 -1 4 C-0.67 2.68 -0.34 1.36 0 0 Z " fill="#232931" transform="translate(127,85)"/>
<path d="M0 0 C0.66 0 1.32 0 2 0 C0.515 5.445 0.515 5.445 -1 11 C-1.33 11 -1.66 11 -2 11 C-2.05399736 9.54207116 -2.09279177 8.08357288 -2.125 6.625 C-2.15980469 5.40683594 -2.15980469 5.40683594 -2.1953125 4.1640625 C-2 2 -2 2 0 0 Z " fill="#CCD9DA" transform="translate(107,82)"/>
<path d="M0 0 C0.66 0.33 1.32 0.66 2 1 C-1.96 4.465 -1.96 4.465 -6 8 C-6 5 -6 5 -4.6875 3.61328125 C-3.125 2.40885417 -1.5625 1.20442708 0 0 Z " fill="#30A0E7" transform="translate(67,57)"/>
<path d="M0 0 C-0.66 1.65 -1.32 3.3 -2 5 C-4.5 3.625 -4.5 3.625 -7 2 C-7 1.34 -7 0.68 -7 0 C-4.3333581 -1.33332095 -2.83319697 -0.67102033 0 0 Z " fill="#D5E4E6" transform="translate(158,57)"/>
<path d="M0 0 C2.97 0.495 2.97 0.495 6 1 C5.34 2.32 4.68 3.64 4 5 C2.68 4.34 1.36 3.68 0 3 C0 2.01 0 1.02 0 0 Z " fill="#577484" transform="translate(88,194)"/>
<path d="M0 0 C1.32 0 2.64 0 4 0 C4 1.32 4 2.64 4 4 C2.35 4 0.7 4 -1 4 C-0.67 2.68 -0.34 1.36 0 0 Z " fill="#111822" transform="translate(138,156)"/>
<path d="M0 0 C0.99 0.33 1.98 0.66 3 1 C2.34 2.32 1.68 3.64 1 5 C-0.65 5 -2.3 5 -4 5 C-3.34 4.67 -2.68 4.34 -2 4 C-0.86649466 1.98330173 -0.86649466 1.98330173 0 0 Z " fill="#889EA4" transform="translate(132,143)"/>
<path d="M0 0 C0.33 1.32 0.66 2.64 1 4 C-0.65 5.32 -2.3 6.64 -4 8 C-4 7.34 -4 6.68 -4 6 C-4.66 5.67 -5.32 5.34 -6 5 C-4.02 3.35 -2.04 1.7 0 0 Z " fill="#343C47" transform="translate(80,136)"/>
<path d="M0 0 C1.65 0 3.3 0 5 0 C4.67 1.65 4.34 3.3 4 5 C2.68 4.67 1.36 4.34 0 4 C0 2.68 0 1.36 0 0 Z " fill="#EDF2F1" transform="translate(139,43)"/>
<path d="M0 0 C1.258125 -0.04125 2.51625 -0.0825 3.8125 -0.125 C4.52019531 -0.14820313 5.22789062 -0.17140625 5.95703125 -0.1953125 C8 0 8 0 11 2 C11 2.66 11 3.32 11 4 C7.37 3.01 3.74 2.02 0 1 C0 0.67 0 0.34 0 0 Z " fill="#B8BFC4" transform="translate(175,41)"/>
<path d="M0 0 C1.98 0.66 3.96 1.32 6 2 C6 3.32 6 4.64 6 6 C3.37812506 4.95125002 2.20628639 4.35068687 0.75 1.875 C0.5025 1.25625 0.255 0.6375 0 0 Z " fill="#2B3E4D" transform="translate(72,186)"/>
<path d="M0 0 C2.625 -0.1875 2.625 -0.1875 5 0 C5 0.99 5 1.98 5 3 C2.69 3 0.38 3 -2 3 C-1.34 2.01 -0.68 1.02 0 0 Z " fill="#1A2534" transform="translate(128,173)"/>
<path d="M0 0 C0.33 0.66 0.66 1.32 1 2 C1.99 1.67 2.98 1.34 4 1 C3.34 3.64 2.68 6.28 2 9 C1.67 9 1.34 9 1 9 C1 7.35 1 5.7 1 4 C0.34 4 -0.32 4 -1 4 C-0.67 2.68 -0.34 1.36 0 0 Z " fill="#546C7A" transform="translate(203,154)"/>
<path d="M0 0 C0.99 0.33 1.98 0.66 3 1 C2.125 4.875 2.125 4.875 1 6 C-0.66617115 6.04063832 -2.33388095 6.042721 -4 6 C-2.68 5.67 -1.36 5.34 0 5 C0 3.35 0 1.7 0 0 Z " fill="#50626B" transform="translate(142,150)"/>
<path d="M0 0 C2.33944736 0.28730055 4.6739143 0.61936779 7 1 C7 1.33 7 1.66 7 2 C6.0925 2.0825 5.185 2.165 4.25 2.25 C0.59922161 3.09248732 -0.63384583 4.17881618 -3 7 C-1.125 1.125 -1.125 1.125 0 0 Z " fill="#646C76" transform="translate(182,144)"/>
<path d="M0 0 C1.32 0 2.64 0 4 0 C4 0.66 4 1.32 4 2 C0.53846154 5 0.53846154 5 -2 5 C-1.34 3.35 -0.68 1.7 0 0 Z " fill="#DAE0E1" transform="translate(78,141)"/>
<path d="M0 0 C1.485 0.99 1.485 0.99 3 2 C3 2.99 3 3.98 3 5 C3.66 5 4.32 5 5 5 C5 5.66 5 6.32 5 7 C2.525 6.01 2.525 6.01 0 5 C0 3.35 0 1.7 0 0 Z " fill="#73828A" transform="translate(129,128)"/>
<path d="M0 0 C1.32 1.32 2.64 2.64 4 4 C2.35 4.33 0.7 4.66 -1 5 C-1.66 4.01 -2.32 3.02 -3 2 C-2.01 2 -1.02 2 0 2 C0 1.34 0 0.68 0 0 Z " fill="#212730" transform="translate(30,99)"/>
<path d="M0 0 C1.98 0 3.96 0 6 0 C6.33 0.66 6.66 1.32 7 2 C4.69 2.33 2.38 2.66 0 3 C0 2.01 0 1.02 0 0 Z " fill="#12161E" transform="translate(168,67)"/>
<path d="M0 0 C0.99 0 1.98 0 3 0 C2.67 1.65 2.34 3.3 2 5 C1.01 4.67 0.02 4.34 -1 4 C-0.67 2.68 -0.34 1.36 0 0 Z " fill="#21282F" transform="translate(120,60)"/>
</svg>
