<?xml version="1.0" encoding="UTF-8"?>
<svg version="1.1" xmlns="http://www.w3.org/2000/svg" width="250" height="250">
<path d="M0 0 C10.86027333 6.36068069 16.64680636 21.50919752 19.8125 33.0625 C21.55793101 40.66547914 21.29097662 47.36804999 20 55 C19.88140625 56.09054688 19.7628125 57.18109375 19.640625 58.3046875 C18.57626488 68.03293903 16.17575176 76.77577445 13 86 C6.39755346 87.06110748 0.16367396 86.94290658 -6.5 86.5625 C-7.51320312 86.51029297 -8.52640625 86.45808594 -9.5703125 86.40429688 C-12.04727608 86.27577518 -14.52371337 86.14087234 -17 86 C-19.03134856 82.16363699 -20.52430708 78.58709698 -21.5625 74.375 C-22.40030693 70.99537205 -23.32635172 68.05997496 -25 65 C-24.7834375 65.72445312 -24.566875 66.44890625 -24.34375 67.1953125 C-21.11853088 78.39398998 -21.11853088 78.39398998 -22 82 C-24.38935474 84.98823693 -27.13959028 87.46982434 -30 90 C-31.09248047 91.02287109 -31.09248047 91.02287109 -32.20703125 92.06640625 C-37.57916667 97 -37.57916667 97 -41 97 C-41.22804595 92.68830903 -41.42884186 88.37575002 -41.625 84.0625 C-41.72167969 82.24395508 -41.72167969 82.24395508 -41.8203125 80.38867188 C-42.19837311 71.669649 -42.39208636 63.54231748 -37.125 56.1875 C-36.59519531 55.44371094 -36.06539063 54.69992188 -35.51953125 53.93359375 C-33.82774156 51.78080224 -31.96817923 49.90031098 -30 48 C-26.89648409 43.69407479 -26.05322766 39.47472415 -25.0625 34.375 C-19.37796922 7.1897764 -19.37796922 7.1897764 -10 0 C-6.09649995 -1.30116668 -3.99981631 -0.99995408 0 0 Z M-27 45 C-29.6580758 51.43534142 -28.39462284 55.60146478 -26 62 C-25.67 62 -25.34 62 -25 62 C-25 56.39 -25 50.78 -25 45 C-25.66 45 -26.32 45 -27 45 Z " fill="#747575" transform="translate(129,38)"/>
<path d="M0 0 C0.556875 1.3303125 0.556875 1.3303125 1.125 2.6875 C2.20799727 5.24778966 3.36151083 7.74910079 4.5703125 10.25390625 C5.12460938 11.40761719 5.67890625 12.56132813 6.25 13.75 C6.79140625 14.85859375 7.3328125 15.9671875 7.890625 17.109375 C9 20 9 20 8 23 C7.01 22.34 6.02 21.68 5 21 C0.30792015 20.31606972 -3.77271167 20.45999314 -8.125 22.375 C-10.60649485 25.84909279 -10.70757674 28.38230465 -10.484375 32.5859375 C-9.72646824 36.36324699 -8.14386022 37.88131159 -5 40 C-1.31561292 41.25425943 0.47097514 41.16596858 4.1875 40 C7.90134868 37.35904094 8.55280282 35.26119171 10 31 C10.33 31 10.66 31 11 31 C11.63388446 45.10392931 9.74963131 58.1781926 7 72 C0.73 72 -5.54 72 -12 72 C-12.99 69.36 -13.98 66.72 -15 64 C-15.31324219 63.18015625 -15.62648438 62.3603125 -15.94921875 61.515625 C-21.05190693 45.85658191 -18.75285426 28.24687574 -11.6875 13.6875 C-4.53301495 0 -4.53301495 0 0 0 Z " fill="#F2F6F5" transform="translate(127,45)"/>
<path d="M0 0 C9.19027861 5.94665086 13.47941641 17.92410251 15.6875 28.19921875 C18.38587461 44.03343088 16.64085523 57.95771938 11 73 C3.41 73 -4.18 73 -12 73 C-12 72.67 -12 72.34 -12 72 C-5.73 72 0.54 72 7 72 C7.12375 70.618125 7.2475 69.23625 7.375 67.8125 C7.76673377 63.77026171 8.3645014 59.81237847 9.0625 55.8125 C10.24017299 48.50220393 10.18385653 41.38490388 10 34 C9.56300781 34.78632812 9.12601563 35.57265625 8.67578125 36.3828125 C6.52363822 39.74396828 4.74070975 40.6797495 1 42 C-3.88969047 41.9002104 -6.48002898 40.31882982 -10 37 C-11.87703256 33.24593487 -11.64672327 29.07883883 -11 25 C-8.27228879 21.41090631 -6.89275855 20.27290937 -2.48046875 19.63671875 C1.92291202 19.51422353 4.25658382 19.50438921 8 22 C6.31300383 16.19837902 4.16656766 11.19010516 0.98828125 6.04296875 C0 4 0 4 0 0 Z " fill="#B8C3C7" transform="translate(127,45)"/>
<path d="M0 0 C6.908087 5.14720208 11.32164573 11.4148192 13 20 C13.08197613 22.31648688 13.10747793 24.63520889 13.09765625 26.953125 C13.0962413 27.61334656 13.09482635 28.27356812 13.09336853 28.95379639 C13.08779245 31.05257794 13.07524447 33.15125095 13.0625 35.25 C13.0574819 36.67708179 13.05291954 38.10416525 13.04882812 39.53125 C13.03783088 43.02086832 13.0205828 46.51042356 13 50 C9.75576283 48.4627022 7.67172777 46.86071595 5.1875 44.25 C2.08551385 41.0199769 -1.08082295 38.27835361 -4.75 35.71484375 C-6.79826685 32.90487767 -6.25042441 30.38249306 -6 27 C-5.58280526 24.69624538 -5.10233122 22.40313939 -4.5625 20.125 C-3.63055121 16.03139318 -2.81140733 12.05722274 -2.4375 7.875 C-2.05279384 4.46760262 -1.59371142 2.88020136 0 0 Z " fill="#727273" transform="translate(152,86)"/>
<path d="M0 0 C1.65 0 3.3 0 5 0 C6.43132419 2.86264838 6.13520272 5.31368732 6.14526367 8.51342773 C6.15030159 9.51613205 6.15030159 9.51613205 6.15544128 10.53909302 C6.16495818 12.75394538 6.16689474 14.9687222 6.16796875 17.18359375 C6.17118074 18.72054577 6.17454476 20.25749748 6.17805481 21.79444885 C6.18404787 25.01832793 6.18589452 28.24218019 6.18530273 31.46606445 C6.18520108 35.60004096 6.19885554 39.73384583 6.21607494 43.86778164 C6.22718531 47.0427581 6.22922224 50.21769293 6.22869301 53.39268684 C6.2298745 54.91693781 6.2343057 56.4411898 6.24202538 57.96542168 C6.25180631 60.09612986 6.24895499 62.22646371 6.24291992 64.35717773 C6.24434494 65.57026108 6.24576996 66.78334442 6.24723816 68.03318787 C6 71 6 71 4 74 C2.68 74 1.36 74 0 74 C0 49.58 0 25.16 0 0 Z " fill="#7E7E7F" transform="translate(124,140)"/>
<path d="M0 0 C1.98 0 3.96 0 6 0 C5.5890044 19.80998812 3.348717 39.34683709 1 59 C-0.98 59 -2.96 59 -5 59 C-5.20023304 48.25719399 -4.69650436 37.66813577 -3.828125 26.96264648 C-3.62278928 24.41001751 -3.43206263 21.85655492 -3.2421875 19.30273438 C-3.1128485 17.65878554 -2.98267124 16.01490239 -2.8515625 14.37109375 C-2.79626373 13.61791367 -2.74096497 12.86473358 -2.68399048 12.08872986 C-2.32223323 7.78999693 -1.54053851 4.03010912 0 0 Z " fill="#7C7D7D" transform="translate(113,140)"/>
<path d="M0 0 C2.31 0 4.62 0 7 0 C8.78270545 18.99476551 9.54937917 37.93654073 10 57 C8.34385343 57.38218767 6.67542976 57.71395102 5 58 C2.11137085 55.11137085 2.89910111 47.66641103 2.5 43.625 C2.43307953 42.96070984 2.36615906 42.29641968 2.29721069 41.61199951 C0.91543172 27.75926489 0.3071551 13.91870785 0 0 Z " fill="#7B7C7C" transform="translate(134,140)"/>
<path d="M0 0 C3.84772759 1.96312632 4.72426323 3.15656987 6.0625 7.25 C5.98305908 12.01645522 4.852263 15.18841731 2 19 C-1.26835916 21.34469244 -3.05187728 22.01934944 -7.0625 21.9375 C-10.44314959 20.85856928 -12.42915878 19.42393601 -15 17 C-16.87703256 13.24593487 -16.64672327 9.07883883 -16 5 C-11.72260968 -0.62814515 -6.80848545 -1.20283243 0 0 Z " fill="#6C6D6D" transform="translate(132,65)"/>
<path d="M0 0 C8.91 0 17.82 0 27 0 C27 2.31 27 4.62 27 7 C18.09 7 9.18 7 0 7 C0 4.69 0 2.38 0 0 Z " fill="#6C6C6C" transform="translate(113,126)"/>
<path d="M0 0 C8.41150679 5.44273969 12.30183222 15.73299444 15 25 C15.48722251 27.35832071 15.78643685 29.59741453 16 32 C14.68 32.66 13.36 33.32 12 34 C11.63648438 32.75605469 11.27296875 31.51210937 10.8984375 30.23046875 C8.34294784 21.70274321 5.86351757 13.73582422 1.1015625 6.12890625 C0 4 0 4 0 0 Z " fill="#AEBCC4" transform="translate(127,45)"/>
<path d="M0 0 C3.0625 0.3125 3.0625 0.3125 5 1.5 C6.0625 3.3125 6.0625 3.3125 5.875 5.875 C5.0625 8.3125 5.0625 8.3125 3.0625 10.3125 C0.0625 10.5625 0.0625 10.5625 -2.9375 10.3125 C-4.9375 8.3125 -4.9375 8.3125 -5.1875 5.3125 C-4.84687504 1.2250005 -4.07761768 0.43378911 0 0 Z " fill="#E8EAEC" transform="translate(125.9375,69.6875)"/>
<path d="M0 0 C3.63094642 2.64960955 5.89851796 5.01824456 8 9 C6.68 9.33 5.36 9.66 4 10 C0 4.5 0 4.5 0 0 Z " fill="#A3AFBB" transform="translate(127,45)"/>
<path d="M0 0 C1.65 0 3.3 0 5 0 C5.33 0.99 5.66 1.98 6 3 C5.67 3.66 5.34 4.32 5 5 C3.35 5 1.7 5 0 5 C0 3.35 0 1.7 0 0 Z " fill="#8A8A8B" transform="translate(108,205)"/>
<path d="M0 0 C1.65 0 3.3 0 5 0 C5 1.65 5 3.3 5 5 C3.35 5 1.7 5 0 5 C0 3.35 0 1.7 0 0 Z " fill="#8F8F90" transform="translate(140,205)"/>
<path d="" fill="#868686" transform="translate(0,0)"/>
</svg>
