<?xml version="1.0" encoding="UTF-8"?>
<svg version="1.1" xmlns="http://www.w3.org/2000/svg" width="250" height="250">
<path d="M0 0 C82.5 0 165 0 250 0 C250 82.5 250 165 250 250 C167.5 250 85 250 0 250 C0 167.5 0 85 0 0 Z " fill="#FEFEFE" transform="translate(0,0)"/>
<path d="M0 0 C7.38711344 3.55675832 11.88564872 11.98777077 15.44140625 19.02734375 C15.77108398 19.67517822 16.10076172 20.3230127 16.44042969 20.99047852 C20.87615687 30.23157681 21.34464746 39.12745443 21.31640625 49.27734375 C21.33251953 50.42396484 21.34863281 51.57058594 21.36523438 52.75195312 C21.37093281 62.82108449 19.40216424 71.81768487 15.81640625 81.21484375 C15.47222656 82.1275 15.12804687 83.04015625 14.7734375 83.98046875 C14.39251953 84.96273437 14.39251953 84.96273437 14.00390625 85.96484375 C4.29771964 86.13315912 -5.31762949 85.60701673 -14.99609375 84.96484375 C-22.97908826 67.73672122 -26.35543678 47.91139702 -21.2265625 29.25 C-10.20354383 -0.17971017 -10.20354383 -0.17971017 0 0 Z " fill="#F6F9F9" transform="translate(126.99609375,38.03515625)"/>
<path d="M0 0 C7.38711344 3.55675832 11.88564872 11.98777077 15.44140625 19.02734375 C15.77108398 19.67517822 16.10076172 20.3230127 16.44042969 20.99047852 C20.87615687 30.23157681 21.34464746 39.12745443 21.31640625 49.27734375 C21.33251953 50.42396484 21.34863281 51.57058594 21.36523438 52.75195312 C21.37093281 62.82108449 19.40216424 71.81768487 15.81640625 81.21484375 C15.47222656 82.1275 15.12804687 83.04015625 14.7734375 83.98046875 C14.39251953 84.96273437 14.39251953 84.96273437 14.00390625 85.96484375 C4.29771964 86.13315912 -5.31762949 85.60701673 -14.99609375 84.96484375 C-22.97908826 67.73672122 -26.35543678 47.91139702 -21.2265625 29.25 C-10.20354383 -0.17971017 -10.20354383 -0.17971017 0 0 Z M-1.99609375 6.96484375 C-13.80368157 19.27804616 -18.61343144 35.73027574 -18.40478516 52.46264648 C-18.05566881 62.25588886 -15.08593493 70.69532021 -11.99609375 79.96484375 C-4.40609375 79.96484375 3.18390625 79.96484375 11.00390625 79.96484375 C11.96296875 76.96390625 11.96296875 76.96390625 12.94140625 73.90234375 C13.30105469 72.77699219 13.66070312 71.65164062 14.03125 70.4921875 C19.13411497 51.98661695 16.76514291 32.83400551 7.84765625 16.09375 C5.59643469 12.2733507 3.47165764 9.70678671 0.00390625 6.96484375 C-0.65609375 6.96484375 -1.31609375 6.96484375 -1.99609375 6.96484375 Z " fill="#151D26" transform="translate(126.99609375,38.03515625)"/>
<path d="M0 0 C1.01169469 0.98816691 2.00746636 1.99258898 3 3 C3.81855469 3.79664062 4.63710937 4.59328125 5.48046875 5.4140625 C16.68682714 18.034994 13.89581592 35.24328707 13 51 C8.22607422 46.23046875 8.22607422 46.23046875 6.19140625 44.15625 C5.65386719 43.6096875 5.11632812 43.063125 4.5625 42.5 C3.97597656 41.90316406 3.38945312 41.30632812 2.78515625 40.69140625 C1.10469391 39.09919576 -0.62610417 37.78966149 -2.5 36.4375 C-3.325 35.633125 -4.15 34.82875 -5 34 C-4.75 31.2890625 -4.75 31.2890625 -4 28 C-3.7628125 26.87464844 -3.525625 25.74929687 -3.28125 24.58984375 C-3.0234375 23.38457031 -2.765625 22.17929688 -2.5 20.9375 C-1.05560296 13.98682838 -0.34699721 7.09549458 0 0 Z " fill="#131B24" transform="translate(151,85)"/>
<path d="M0 0 C0.33 0 0.66 0 1 0 C1.11275269 0.88353149 1.11275269 0.88353149 1.2277832 1.78491211 C1.58011879 4.50372845 1.94622804 7.22052743 2.3125 9.9375 C2.43044922 10.86369141 2.54839844 11.78988281 2.66992188 12.74414062 C3.4064825 18.12669902 4.49063898 23.03614545 6.40307617 28.12719727 C7 30 7 30 7 33 C5.56640625 34.5078125 5.56640625 34.5078125 3.5625 36.125 C-0.6206945 39.61348542 -4.41757788 43.37586475 -8.21484375 47.27734375 C-10 49 -10 49 -11 49 C-13.18300182 15.6382365 -13.18300182 15.6382365 -2.50390625 2.59375 C-1.67761719 1.7378125 -0.85132812 0.881875 0 0 Z " fill="#111921" transform="translate(100,86)"/>
<path d="M0 0 C2.475 0.495 2.475 0.495 5 1 C5.04627979 10.22269206 5.08184694 19.44534434 5.10362434 28.66812706 C5.11407483 32.95034248 5.12825697 37.23247864 5.15087891 41.51464844 C5.17256238 45.64488126 5.18455909 49.77503769 5.18975449 53.90532303 C5.19345835 55.48343738 5.2006908 57.06154741 5.21146011 58.63962936 C5.22591549 60.84496951 5.22798048 63.04999142 5.22705078 65.25537109 C5.231492 66.51223724 5.23593323 67.76910339 5.24050903 69.0640564 C5 72 5 72 3 74 C2.01 74 1.02 74 0 74 C0 49.58 0 25.16 0 0 Z " fill="#1A232C" transform="translate(124,140)"/>
<path d="M0 0 C2.87029869 1.79393668 4.49131638 2.98263276 6 6 C6.37593152 10.98109259 6.1765161 14.05673864 3 18 C0.3017982 20.11480682 -1.55721934 20.92463308 -4.9375 21.5 C-9.25011712 20.79589925 -10.88856971 19.03907145 -14 16 C-15.60086627 12.79826746 -15.49917089 9.47422941 -15 6 C-11.03690229 -0.20885308 -7.02452124 -0.90991208 0 0 Z " fill="#141D25" transform="translate(131,65)"/>
<path d="M0 0 C5.01894048 3.69967612 7.59796598 7.14890414 10.25 12.75 C10.58773437 13.41515625 10.92546875 14.0803125 11.2734375 14.765625 C15.40030702 23.21433425 16.36649623 31.36087927 16.3125 40.6875 C16.30839111 42.12899414 16.30839111 42.12899414 16.30419922 43.59960938 C16.15748208 53.65732219 14.18395076 62.44814772 11 72 C3.41 72 -4.18 72 -12 72 C-12 71.67 -12 71.34 -12 71 C-5.73 71 0.54 71 7 71 C7.33 68.36 7.66 65.72 8 63 C8.37934203 61.07184181 8.75892892 59.14367121 9.15673828 57.21923828 C12.69280554 39.51337079 12.78384564 22.04730254 2.87304688 6.19775391 C2.50759766 5.66456543 2.14214844 5.13137695 1.765625 4.58203125 C0 2 0 2 0 0 Z " fill="#C4CED2" transform="translate(127,46)"/>
<path d="M0 0 C1.32 0 2.64 0 4 0 C4.40588809 9.87370069 3.31628035 19.63418382 2.34594727 29.44458008 C2.06150625 32.3225548 1.78500371 35.20121007 1.50976562 38.08007812 C1.33118891 39.92452374 1.15216812 41.76892642 0.97265625 43.61328125 C0.8491555 44.89311638 0.8491555 44.89311638 0.72315979 46.19880676 C0.2956174 50.50008933 -0.22539497 54.7437628 -1 59 C-2.32 59 -3.64 59 -5 59 C-5.20472501 48.09994425 -4.68280709 37.34479302 -3.828125 26.48046875 C-3.6226155 23.84441419 -3.43202096 21.2075373 -3.2421875 18.5703125 C-3.11286888 16.87753596 -2.98269264 15.18482467 -2.8515625 13.4921875 C-2.79626373 12.71197235 -2.74096497 11.9317572 -2.68399048 11.12789917 C-2.35249701 7.07759394 -1.76700942 3.67527023 0 0 Z " fill="#1C242D" transform="translate(114,140)"/>
<path d="M0 0 C1.65 0 3.3 0 5 0 C5.43724991 5.20552215 5.86388047 10.41178175 6.28173828 15.61889648 C6.42450787 17.38083925 6.56990897 19.14257127 6.71826172 20.90405273 C7.75979356 33.29969865 8.19129685 45.5612763 8 58 C6.68 57.67 5.36 57.34 4 57 C3.41988518 51.45496635 2.85077363 45.90894207 2.29101562 40.36181641 C2.09988814 38.48228924 1.90596554 36.60304379 1.70898438 34.72412109 C0.49237583 23.09806082 -0.29966516 11.69526531 0 0 Z " fill="#1D252F" transform="translate(135,140)"/>
<path d="M0 0 C8.91 0 17.82 0 27 0 C27 2.31 27 4.62 27 7 C18.09 7 9.18 7 0 7 C0 4.69 0 2.38 0 0 Z " fill="#1C252D" transform="translate(113,126)"/>
<path d="M0 0 C0.05607422 1.48886719 0.05607422 1.48886719 0.11328125 3.0078125 C0.53456737 12.27381124 1.75937668 20.96891621 4 30 C4.31710938 31.31097656 4.31710938 31.31097656 4.640625 32.6484375 C5.07963092 34.43581876 5.53686669 36.21871802 6 38 C5.01 38 4.02 38 3 38 C-0.02788998 29.51728533 -2.42140399 21.21502542 -3.5 12.25 C-3.60103027 11.4883252 -3.70206055 10.72665039 -3.80615234 9.94189453 C-4.15400246 6.57884036 -4.26703002 4.47768704 -2.59375 1.484375 C-1 0 -1 0 0 0 Z " fill="#DEE1E4" transform="translate(104,81)"/>
<path d="M0 0 C5.03591044 3.71029167 7.63568228 7.20015832 10.3125 12.8125 C10.65861328 13.48603516 11.00472656 14.15957031 11.36132812 14.85351562 C13.69248878 19.60217622 14.88337091 23.68504591 15 29 C13.5625 31.5 13.5625 31.5 12 33 C11.84144531 32.28457031 11.68289062 31.56914063 11.51953125 30.83203125 C9.12785157 20.61784123 6.24114518 10.55268043 0 2 C0 1.34 0 0.68 0 0 Z " fill="#BCC9D0" transform="translate(127,46)"/>
<path d="M0 0 C3.0625 0.3125 3.0625 0.3125 5 1.5 C6.0625 3.3125 6.0625 3.3125 5.875 5.875 C5.0625 8.3125 5.0625 8.3125 3.0625 10.3125 C0.0625 10.5625 0.0625 10.5625 -2.9375 10.3125 C-4.9375 8.3125 -4.9375 8.3125 -5.1875 5.3125 C-4.84687504 1.2250005 -4.07761768 0.43378911 0 0 Z " fill="#EFF1F2" transform="translate(125.9375,69.6875)"/>
<path d="M0 0 C0.33 0 0.66 0 1 0 C3.01944214 29.13902594 3.01944214 29.13902594 -2 42 C-2.99 42 -3.98 42 -5 42 C-3 33 -3 33 -2.50537109 31.11694336 C-0.87076044 24.57329497 -0.56953684 18.16117947 -0.375 11.4375 C-0.31699219 9.78137695 -0.31699219 9.78137695 -0.2578125 8.09179688 C-0.16440616 5.39468875 -0.07863524 2.6975723 0 0 Z " fill="#BDC1C4" transform="translate(148,77)"/>
<path d="M0 0 C0.33 0 0.66 0 1 0 C1 2.31 1 4.62 1 7 C1.66 7 2.32 7 3 7 C3 9.97 3 12.94 3 16 C1.68 16 0.36 16 -1 16 C-1.02685095 13.52076199 -1.04676547 11.0418116 -1.0625 8.5625 C-1.07506836 7.50192383 -1.07506836 7.50192383 -1.08789062 6.41992188 C-1.09653588 4.61306441 -1.05220011 2.80612397 -1 1 C-0.67 0.67 -0.34 0.34 0 0 Z " fill="#252E37" transform="translate(110,183)"/>
<path d="M0 0 C0 6.93 0 13.86 0 21 C-2.30071342 17.54892987 -2.68320067 15.1422433 -3.3125 11.0625 C-3.51488281 9.83660156 -3.71726562 8.61070313 -3.92578125 7.34765625 C-4 4 -4 4 -2.60546875 1.55859375 C-1 0 -1 0 0 0 Z " fill="#D6DCDE" transform="translate(104,81)"/>
<path d="M0 0 C2.475 0.495 2.475 0.495 5 1 C4.67 2.32 4.34 3.64 4 5 C2.68 4.67 1.36 4.34 0 4 C0 2.68 0 1.36 0 0 Z " fill="#252B32" transform="translate(140,205)"/>
<path d="M0 0 C2.475 0.495 2.475 0.495 5 1 C4.67 2.32 4.34 3.64 4 5 C2.68 4.67 1.36 4.34 0 4 C0 2.68 0 1.36 0 0 Z " fill="#252C33" transform="translate(108,205)"/>
<path d="M0 0 C5.875 4.625 5.875 4.625 7 8 C6.34 8.66 5.68 9.32 5 10 C4.16121545 8.71186658 3.32913217 7.41936744 2.5 6.125 C2.0359375 5.40570313 1.571875 4.68640625 1.09375 3.9453125 C0 2 0 2 0 0 Z " fill="#B0BDC9" transform="translate(127,46)"/>
<path d="M0 0 C0.33 0 0.66 0 1 0 C1.33 2.97 1.66 5.94 2 9 C1.01 9.33 0.02 9.66 -1 10 C-1.9765625 3.9453125 -1.9765625 3.9453125 -2 2 C-1.34 1.34 -0.68 0.68 0 0 Z " fill="#B7BDC3" transform="translate(104,97)"/>
<path d="M0 0 C2 3 2 3 1.625 6.1875 C1.41875 7.115625 1.2125 8.04375 1 9 C0.01 9 -0.98 9 -2 9 C-1.34 6.03 -0.68 3.06 0 0 Z " fill="#CED3D6" transform="translate(145,110)"/>
</svg>
